<svg width="70" height="70" viewBox="0 0 70 70" fill="none" xmlns="http://www.w3.org/2000/svg">
<g filter="url(#filter0_b_1586_935)">
<rect width="70" height="70" rx="35" fill="url(#paint0_linear_1586_935)" fill-opacity="0.1"/>
<rect width="70" height="70" rx="35" fill="white" fill-opacity="0.05"/>
<rect width="70" height="70" rx="35" fill="url(#paint1_linear_1586_935)"/>
<path fill-rule="evenodd" clip-rule="evenodd" d="M28.7643 16.5766C27.9127 17.0973 27.423 18.0686 27.5455 18.9948L27.6413 19.7205L24.629 21.9802L21.6166 24.24L20.904 23.9412C19.6759 23.4265 18.304 23.9594 17.7292 25.1747C17.3029 26.0758 17.3269 26.8654 17.8047 27.6511C18.5275 28.8407 19.8567 29.2196 21.1487 28.6046C22.0849 28.1589 22.5282 27.3987 22.5286 26.238L22.5292 25.2702L25.504 23.0383C28.0656 21.1164 28.5347 20.8364 28.8806 21.0221C29.4718 21.3393 30.9679 21.2845 31.4768 20.927C31.8965 20.6321 32.0796 20.7112 35.0513 22.4674C38.0337 24.2301 38.1834 24.3489 38.1842 24.953C38.1858 26.2961 39.4776 27.6014 40.8053 27.6014C42.1688 27.6014 43.4888 26.2358 43.3876 24.9305C43.3379 24.29 43.4099 24.2277 46.2352 22.4615C48.928 20.7781 49.1635 20.6703 49.5524 20.9436C49.7827 21.1055 50.4138 21.2378 50.9549 21.2378C51.8012 21.2378 52.0326 21.1435 52.6124 20.5619C53.4672 19.7045 53.6558 18.9695 53.2909 17.9193C52.749 16.3593 50.9368 15.7212 49.5163 16.5899C48.7795 17.0405 48.2106 18.1609 48.3066 18.9715C48.3628 19.4453 48.0968 19.6644 45.4849 21.295L42.601 23.0954L41.9249 22.7735C41.0764 22.3697 40.6161 22.3689 39.6176 22.7697L38.8251 23.0879L35.7096 21.2465C32.9425 19.611 32.6042 19.3531 32.6829 18.9396C32.8215 18.2129 32.2259 17.0403 31.4893 16.5899C30.6454 16.0739 29.5946 16.0686 28.7643 16.5766ZM28.1011 34.5395L28.1033 43.3905L28.6552 42.6825C29.619 41.4453 30.5813 40.6654 31.9701 39.9956L33.32 39.3444L33.3315 32.5165L33.3428 25.6886H30.7209H28.0989L28.1011 34.5395ZM48.2678 35.804V45.9194H50.8898H53.5118V35.804V25.6886H50.8898H48.2678V35.804ZM18.0144 38.9398V45.9194H20.6364H23.2583V38.9398V31.9601H20.6364H18.0144V38.9398ZM38.1947 35.6522L38.2062 39.3444L39.5696 39.996C40.7987 40.5835 42.2236 41.7854 43.1143 42.9859C43.3825 43.3474 43.4152 42.783 43.4208 37.6753L43.4273 31.9601H40.8053H38.1834L38.1947 35.6522ZM33.3622 40.5483C32.2251 40.9185 30.5789 42.0612 29.8492 42.9869C29.5359 43.3841 29.0388 44.2291 28.7441 44.8648C28.0263 46.4138 27.9999 48.8715 28.6826 50.6225C29.3133 52.2403 30.8189 53.8355 32.4971 54.6644C33.7278 55.2721 33.9971 55.3267 35.7589 55.3267C37.4059 55.3267 37.8383 55.2519 38.7977 54.8005C39.4129 54.511 40.2561 53.9747 40.6718 53.6087L41.4273 52.9433L40.9901 52.4762L40.5526 52.0093L39.6567 52.6953C36.9258 54.787 32.9592 54.3449 30.8883 51.7184C27.6536 47.6155 30.5664 41.6114 35.7915 41.6114C38.7318 41.6114 41.3727 43.8063 41.8874 46.678L42.0054 47.3355H41.1028C40.6065 47.3355 40.2003 47.3922 40.2003 47.4612C40.2003 47.5304 40.7593 48.3441 41.4427 49.2694L42.6851 50.952L43.9386 49.2955C44.628 48.3845 45.1527 47.5706 45.1045 47.4873C45.0563 47.4039 44.661 47.3355 44.226 47.3355C43.5273 47.3355 43.4206 47.2706 43.3121 46.7792C42.8446 44.661 42.2276 43.5307 40.8156 42.206C39.3368 40.8184 38.2673 40.3937 36.0656 40.3199C34.8847 40.2802 33.94 40.3602 33.3622 40.5483ZM35.158 45.6125V47.9356L34.0992 48.4691C33.5167 48.7626 33.0108 49.0289 32.9749 49.0606C32.939 49.0926 33.0548 49.4003 33.2323 49.7444L33.5548 50.37L34.9616 49.6595L36.3682 48.949V46.1191V43.2894H35.7631H35.158V45.6125ZM16.1992 47.8446V48.5561L21.5944 48.5021L26.9896 48.4482L27.0527 47.7907L27.1161 47.1332H21.6575H16.1992V47.8446ZM46.4526 47.8413V48.5494H50.8898H55.327V47.8413V47.1332H50.8898H46.4526V47.8413Z" fill="#D9D9D9"/>
</g>
<defs>
<filter id="filter0_b_1586_935" x="-34.7802" y="-34.7802" width="139.56" height="139.56" filterUnits="userSpaceOnUse" color-interpolation-filters="sRGB">
<feFlood flood-opacity="0" result="BackgroundImageFix"/>
<feGaussianBlur in="BackgroundImageFix" stdDeviation="17.3901"/>
<feComposite in2="SourceAlpha" operator="in" result="effect1_backgroundBlur_1586_935"/>
<feBlend mode="normal" in="SourceGraphic" in2="effect1_backgroundBlur_1586_935" result="shape"/>
</filter>
<linearGradient id="paint0_linear_1586_935" x1="0" y1="0" x2="70" y2="70" gradientUnits="userSpaceOnUse">
<stop stop-color="#FF8100"/>
<stop offset="1" stop-color="#FFD101"/>
</linearGradient>
<linearGradient id="paint1_linear_1586_935" x1="28.9754" y1="14.1346" x2="55.0666" y2="58.0884" gradientUnits="userSpaceOnUse">
<stop stop-color="#AE00FF"/>
<stop offset="1" stop-color="#0500FF" stop-opacity="0.35"/>
</linearGradient>
</defs>
</svg>
