<svg width="70" height="70" viewBox="0 0 70 70" fill="none" xmlns="http://www.w3.org/2000/svg">
<g filter="url(#filter0_b_1586_949)">
<rect width="70" height="70" rx="35" fill="url(#paint0_linear_1586_949)" fill-opacity="0.1"/>
<rect width="70" height="70" rx="35" fill="white" fill-opacity="0.05"/>
<rect width="70" height="70" rx="35" fill="url(#paint1_linear_1586_949)"/>
<path fill-rule="evenodd" clip-rule="evenodd" d="M29.9416 20.5702C29.8639 20.8837 29.8341 21.8682 29.8753 22.7577L29.95 24.375H35.5H41.05L41.1247 22.7577C41.1659 21.8682 41.1361 20.8837 41.0584 20.5702L40.9173 20H35.5H30.0827L29.9416 20.5702ZM17.5113 25.6587C16.7504 26.639 16.8451 27.9272 17.7834 29.3627C19.1758 31.4935 23.6834 34.895 26.7401 36.1217C28.5462 36.8465 32.7213 37.8205 33.0745 37.5993C33.1875 37.5285 33.28 37.1885 33.28 36.8438C33.28 35.3325 34.7437 34.4583 36.3653 35.0007C37.31 35.3167 37.72 35.8745 37.72 36.8438C37.72 37.1885 37.8125 37.5285 37.9255 37.5993C38.2787 37.8205 42.4538 36.8465 44.2599 36.1217C47.3166 34.895 51.8242 31.4935 53.2166 29.3627C54.1549 27.9272 54.2496 26.639 53.4887 25.6587L52.9776 25H35.5H18.0224L17.5113 25.6587ZM17 38.084V46H35.5H54V38.084V30.168L52.335 31.7857C49.5191 34.5217 46.2327 36.6217 43.27 37.5788C42.3055 37.8903 38.3021 38.75 37.8162 38.75C37.7632 38.75 37.72 39.248 37.72 39.8568C37.72 41.2273 36.9196 42 35.5 42C34.0804 42 33.28 41.2273 33.28 39.8568C33.28 39.248 33.2368 38.75 33.1838 38.75C32.6979 38.75 28.6945 37.8903 27.73 37.5788C24.7673 36.6217 21.4809 34.5217 18.665 31.7857L17 30.168V38.084ZM17 48.3862C17 49.525 17.1083 49.8825 17.6056 50.3862L18.2109 51H35.5H52.7891L53.3944 50.3862C53.8917 49.8825 54 49.525 54 48.3862V47H35.5H17V48.3862Z" fill="white"/>
</g>
<defs>
<filter id="filter0_b_1586_949" x="-34.7802" y="-34.7802" width="139.56" height="139.56" filterUnits="userSpaceOnUse" color-interpolation-filters="sRGB">
<feFlood flood-opacity="0" result="BackgroundImageFix"/>
<feGaussianBlur in="BackgroundImageFix" stdDeviation="17.3901"/>
<feComposite in2="SourceAlpha" operator="in" result="effect1_backgroundBlur_1586_949"/>
<feBlend mode="normal" in="SourceGraphic" in2="effect1_backgroundBlur_1586_949" result="shape"/>
</filter>
<linearGradient id="paint0_linear_1586_949" x1="0" y1="0" x2="70" y2="70" gradientUnits="userSpaceOnUse">
<stop stop-color="#FF8100"/>
<stop offset="1" stop-color="#FFD101"/>
</linearGradient>
<linearGradient id="paint1_linear_1586_949" x1="28.9754" y1="14.1346" x2="55.0666" y2="58.0884" gradientUnits="userSpaceOnUse">
<stop stop-color="#AE00FF"/>
<stop offset="1" stop-color="#0500FF" stop-opacity="0.35"/>
</linearGradient>
</defs>
</svg>
