<svg width="30" height="31" viewBox="0 0 30 31" fill="none" xmlns="http://www.w3.org/2000/svg">
<circle cx="15" cy="15.5" r="14.5" stroke="#BA18EE"/>
<mask id="mask0_1756_124" style="mask-type:alpha" maskUnits="userSpaceOnUse" x="7" y="7" width="16" height="17">
<path d="M8.75065 10.5013C9.67113 10.5013 10.4173 9.75511 10.4173 8.83464C10.4173 7.91416 9.67113 7.16797 8.75065 7.16797C7.83018 7.16797 7.08398 7.91416 7.08398 8.83464C7.08398 9.75511 7.83018 10.5013 8.75065 10.5013Z" fill="white"/>
<path d="M7.08398 13H10.4173V23.4167H7.08398V13ZM13.7507 16.9583V23.4167H16.6673V17.5833C16.6673 16.5417 17.2923 15.7083 18.334 15.7083C19.3757 15.7083 20.0007 16.75 20.0007 17.5833V23.4167H22.9173V16.9583C22.9173 15.7083 21.459 13 18.334 13C15.209 13 13.7507 15.7083 13.7507 16.9583Z" fill="white"/>
</mask>
<g mask="url(#mask0_1756_124)">
<path d="M5 5.5H25V25.5H5V5.5Z" fill="white"/>
</g>
</svg>
