<svg width="30" height="31" viewBox="0 0 30 31" fill="none" xmlns="http://www.w3.org/2000/svg">
<circle cx="15" cy="15.5" r="14.5" stroke="#BA18EE"/>
<path d="M17.5 15.5C17.5 15.9945 17.3534 16.4778 17.0787 16.8889C16.804 17.3 16.4135 17.6205 15.9567 17.8097C15.4999 17.9989 14.9972 18.0484 14.5123 17.952C14.0273 17.8555 13.5819 17.6174 13.2322 17.2678C12.8826 16.9181 12.6445 16.4727 12.548 15.9877C12.4516 15.5028 12.5011 15.0001 12.6903 14.5433C12.8795 14.0865 13.2 13.696 13.6111 13.4213C14.0222 13.1466 14.5055 13 15 13C15.6624 13.0021 16.2971 13.2661 16.7655 13.7345C17.2339 14.2029 17.4979 14.8376 17.5 15.5ZM22.8125 12.0625V18.9375C22.8125 20.0978 22.3516 21.2106 21.5311 22.0311C20.7106 22.8516 19.5978 23.3125 18.4375 23.3125H11.5625C10.4022 23.3125 9.28938 22.8516 8.46891 22.0311C7.64844 21.2106 7.1875 20.0978 7.1875 18.9375V12.0625C7.1875 10.9022 7.64844 9.78938 8.46891 8.96891C9.28938 8.14844 10.4022 7.6875 11.5625 7.6875H18.4375C19.5978 7.6875 20.7106 8.14844 21.5311 8.96891C22.3516 9.78938 22.8125 10.9022 22.8125 12.0625ZM18.75 15.5C18.75 14.7583 18.5301 14.0333 18.118 13.4166C17.706 12.7999 17.1203 12.3193 16.4351 12.0355C15.7498 11.7516 14.9958 11.6774 14.2684 11.8221C13.541 11.9668 12.8728 12.3239 12.3483 12.8483C11.8239 13.3728 11.4668 14.041 11.3221 14.7684C11.1774 15.4958 11.2516 16.2498 11.5355 16.9351C11.8193 17.6203 12.2999 18.206 12.9166 18.618C13.5333 19.0301 14.2583 19.25 15 19.25C15.9946 19.25 16.9484 18.8549 17.6517 18.1517C18.3549 17.4484 18.75 16.4946 18.75 15.5ZM20 11.4375C20 11.2521 19.945 11.0708 19.842 10.9167C19.739 10.7625 19.5926 10.6423 19.4213 10.5714C19.25 10.5004 19.0615 10.4818 18.8796 10.518C18.6977 10.5542 18.5307 10.6435 18.3996 10.7746C18.2685 10.9057 18.1792 11.0727 18.143 11.2546C18.1068 11.4365 18.1254 11.625 18.1964 11.7963C18.2673 11.9676 18.3875 12.114 18.5417 12.217C18.6958 12.32 18.8771 12.375 19.0625 12.375C19.3111 12.375 19.5496 12.2762 19.7254 12.1004C19.9012 11.9246 20 11.6861 20 11.4375Z" fill="white"/>
</svg>
