<svg width="70" height="70" viewBox="0 0 70 70" fill="none" xmlns="http://www.w3.org/2000/svg">
<g filter="url(#filter0_b_1586_956)">
<rect width="70" height="70" rx="35" fill="url(#paint0_linear_1586_956)" fill-opacity="0.1"/>
<rect width="70" height="70" rx="35" fill="white" fill-opacity="0.05"/>
<rect width="70" height="70" rx="35" fill="url(#paint1_linear_1586_956)"/>
<path d="M20.8571 21.8572L17 25.7144H20.8812H24.7545V21.8572C24.7545 19.7358 24.7464 18.0001 24.7304 18.0001C24.7223 18.0001 22.9786 19.7358 20.8571 21.8572Z" fill="white"/>
<path d="M26.041 21.7929C26.041 23.8821 26.0008 25.7384 25.9607 25.9071C25.8723 26.3009 25.6633 26.5902 25.3098 26.7991C25.0446 26.9518 24.8678 26.9598 21.0428 26.9839L17.041 27.008V40.0821C17.041 52.9875 17.041 53.1562 17.2017 53.4214C17.2901 53.5661 17.4749 53.7509 17.6196 53.8393C17.8848 54 18.0535 54 29.8982 54C41.7428 54 41.9116 54 42.1767 53.8393C42.3214 53.7509 42.5062 53.5661 42.5946 53.4214C42.7473 53.1643 42.7553 53.0036 42.7553 47.8045V42.4527L41.9598 42.4125C40.8669 42.3562 40.433 42.0911 40.2642 41.3357C40.1678 40.9259 40.1678 31.0741 40.2642 30.6643C40.433 29.9089 40.8669 29.6437 41.9598 29.5875L42.7553 29.5473V24.1955C42.7553 18.9964 42.7473 18.8357 42.5946 18.5786C42.5062 18.4339 42.3214 18.2491 42.1767 18.1607C41.9196 18 41.7508 18 33.9803 18H26.041V21.7929ZM37.291 29.7321C37.4999 29.8446 37.6124 30.2384 37.6124 30.9054V31.5H37.8857C38.0303 31.5 38.2714 31.5402 38.416 31.5884C38.8741 31.7491 38.8982 31.9179 38.8982 34.7143C38.8982 37.5107 38.8741 37.6795 38.416 37.8402C38.2714 37.8884 38.0303 37.9286 37.8857 37.9286H37.6124V39.1741C37.6124 40.5804 37.524 40.942 37.1785 41.0304C37.066 41.0545 36.8732 41.0545 36.7607 41.0304C36.4151 40.942 36.3267 40.5804 36.3267 39.1741V37.9286H36.0535C35.5874 37.9286 35.274 37.7679 35.1535 37.4786C34.9928 37.0929 34.9928 32.3357 35.1535 31.95C35.274 31.6607 35.5874 31.5 36.0535 31.5H36.3267V30.9054C36.3267 30.2625 36.4151 29.9089 36.6241 29.7482C36.7848 29.6357 37.0821 29.6196 37.291 29.7321ZM21.8624 33.5893C22.0955 33.7179 22.1839 34.1196 22.1839 35.0839V36H22.4571C22.9232 36 23.2366 36.1607 23.3571 36.45C23.5178 36.8357 23.5178 40.3071 23.3571 40.6929C23.2366 40.9821 22.9232 41.1429 22.4571 41.1429H22.1839V42.067C22.1839 43.4009 21.983 43.7625 21.3321 43.6018C21.0107 43.5134 20.8982 43.1357 20.8982 42.067V41.1429H20.6249C20.1589 41.1429 19.8455 40.9821 19.7249 40.6929C19.5642 40.3071 19.5642 36.8357 19.7249 36.45C19.8455 36.1607 20.1589 36 20.6249 36H20.8982V35.0839C20.8982 34.1357 20.9705 33.7821 21.1955 33.6054C21.3562 33.4929 21.6535 33.4768 21.8624 33.5893ZM33.4339 34.2321C33.6991 34.3687 33.7553 34.7625 33.7553 36.3696V37.9286H34.0366C34.4946 37.9286 34.8482 38.1134 34.9526 38.4107C35.0973 38.8286 35.0732 45.4821 34.9285 45.8357C34.808 46.125 34.4946 46.2857 34.0285 46.2857H33.7553V47.2098C33.7553 48.5437 33.5544 48.9054 32.9035 48.7446C32.5821 48.6562 32.4696 48.2786 32.4696 47.2098V46.2857H32.1964C31.7303 46.2857 31.4169 46.125 31.2964 45.8357C31.1517 45.4821 31.1276 38.8286 31.2723 38.4107C31.3767 38.1134 31.7303 37.9286 32.1883 37.9286H32.4696V36.3696C32.4696 34.7946 32.5178 34.4411 32.7669 34.2482C32.9276 34.1357 33.2249 34.1196 33.4339 34.2321ZM25.7196 40.0179C25.9285 40.1304 26.041 40.5241 26.041 41.1911V41.7857H26.3142C26.4589 41.7857 26.6999 41.8259 26.8446 41.8741C27.2705 42.0268 27.3267 42.2839 27.3267 44.0357C27.3267 45.7875 27.2705 46.0446 26.8446 46.1973C26.6999 46.2455 26.4589 46.2857 26.3142 46.2857H26.041V48.4955C26.041 50.2393 26.0169 50.7696 25.9285 50.9866C25.7999 51.2839 25.5428 51.4045 25.1892 51.3161C24.7955 51.2116 24.7553 50.9304 24.7553 48.4955V46.2857H24.4821C24.016 46.2857 23.7026 46.125 23.5821 45.8357C23.4214 45.458 23.4214 42.6134 23.5821 42.2357C23.7026 41.9464 24.016 41.7857 24.4821 41.7857H24.7553V41.1911C24.7553 40.5482 24.8437 40.1946 25.0526 40.0339C25.2133 39.9214 25.5107 39.9054 25.7196 40.0179ZM29.5767 42.5893C29.8419 42.7259 29.8982 43.1196 29.8982 44.7268V46.2857H30.1794C30.6374 46.2857 30.991 46.4705 31.0955 46.7679C31.2241 47.1616 31.216 49.3554 31.0714 49.6929C30.9508 49.9902 30.6294 50.1429 30.1473 50.1429C29.8982 50.1429 29.8419 50.175 29.7616 50.3839C29.6008 50.8098 28.9098 50.8098 28.7491 50.3839C28.6687 50.175 28.6124 50.1429 28.3633 50.1429C27.8812 50.1429 27.5598 49.9902 27.4392 49.6929C27.2946 49.3554 27.2866 47.1616 27.4151 46.7679C27.5196 46.4705 27.8732 46.2857 28.3312 46.2857H28.6124V44.7268C28.6124 43.1518 28.6607 42.7982 28.9098 42.6054C29.0705 42.4929 29.3678 42.4768 29.5767 42.5893Z" fill="white"/>
<path d="M49.5045 27.1365C49.2634 27.2249 48.9661 27.4419 48.6366 27.7794L48.1223 28.2856H47.1661C46.483 28.2856 46.1375 28.3178 45.9848 28.3981C45.8643 28.4624 45.2455 29.041 44.6027 29.6838L43.4375 30.857H42.4571H41.4688V32.1428V33.4285H42.9554C44.0964 33.4285 44.4982 33.4044 44.667 33.316C44.7875 33.2517 45.4062 32.6731 46.0491 32.0303L47.2143 30.857H47.6643C48.1223 30.857 48.1304 30.857 48.6366 31.3633C49.2714 32.0061 49.7054 32.1749 50.6134 32.1267C51.6259 32.0785 52.3812 31.5963 52.8071 30.7285C53.0884 30.1579 53.1205 29.2178 52.8795 28.5829C52.6464 27.9642 52.0759 27.3936 51.4732 27.1686C50.9268 26.9678 50.0348 26.9517 49.5045 27.1365Z" fill="white"/>
<path d="M49.5045 33.5647C49.2634 33.6531 48.9661 33.8701 48.6366 34.2076L48.1223 34.7138H44.7955H41.4688V35.9996V37.2853H44.7955H48.1223L48.6366 37.7915C49.2714 38.4344 49.7054 38.6031 50.6134 38.5549C51.6259 38.5067 52.3812 38.0246 52.8071 37.1567C53.0884 36.5862 53.1205 35.646 52.8795 35.0112C52.6464 34.3924 52.0759 33.8219 51.4732 33.5969C50.9268 33.396 50.0348 33.3799 49.5045 33.5647Z" fill="white"/>
<path d="M41.4688 39.857V41.1427H42.4571H43.4375L44.6027 42.3159C45.2455 42.9587 45.8643 43.5373 45.9848 43.6016C46.1375 43.682 46.483 43.7141 47.1661 43.7141H48.1223L48.6366 44.2203C49.2714 44.8632 49.7054 45.032 50.6134 44.9837C51.6259 44.9355 52.3812 44.4534 52.8071 43.5855C53.0884 43.015 53.1205 42.0748 52.8795 41.44C52.5179 40.4677 51.5857 39.857 50.4768 39.857C49.6571 39.857 49.2312 40.0337 48.6366 40.6364C48.1304 41.1427 48.1223 41.1427 47.6643 41.1427H47.2143L46.0491 39.9695C45.4062 39.3266 44.7875 38.748 44.667 38.6837C44.4982 38.5953 44.0964 38.5712 42.9554 38.5712H41.4688V39.857Z" fill="white"/>
</g>
<defs>
<filter id="filter0_b_1586_956" x="-34.7802" y="-34.7802" width="139.56" height="139.56" filterUnits="userSpaceOnUse" color-interpolation-filters="sRGB">
<feFlood flood-opacity="0" result="BackgroundImageFix"/>
<feGaussianBlur in="BackgroundImageFix" stdDeviation="17.3901"/>
<feComposite in2="SourceAlpha" operator="in" result="effect1_backgroundBlur_1586_956"/>
<feBlend mode="normal" in="SourceGraphic" in2="effect1_backgroundBlur_1586_956" result="shape"/>
</filter>
<linearGradient id="paint0_linear_1586_956" x1="0" y1="0" x2="70" y2="70" gradientUnits="userSpaceOnUse">
<stop stop-color="#FF8100"/>
<stop offset="1" stop-color="#FFD101"/>
</linearGradient>
<linearGradient id="paint1_linear_1586_956" x1="28.9754" y1="14.1346" x2="55.0666" y2="58.0884" gradientUnits="userSpaceOnUse">
<stop stop-color="#AE00FF"/>
<stop offset="1" stop-color="#0500FF" stop-opacity="0.35"/>
</linearGradient>
</defs>
</svg>
