<svg width="65" height="65" viewBox="0 0 65 65" fill="none" xmlns="http://www.w3.org/2000/svg">
<path opacity="0.2" d="M64.1002 32.4341C64.1002 49.8868 49.952 64.035 32.4993 64.035C15.0466 64.035 0.898438 49.8868 0.898438 32.4341C0.898438 14.9814 15.0466 0.833252 32.4993 0.833252C49.952 0.833252 64.1002 14.9814 64.1002 32.4341ZM6.64359 32.4341C6.64359 46.7139 18.2196 58.2899 32.4993 58.2899C46.779 58.2899 58.355 46.7139 58.355 32.4341C58.355 18.1544 46.779 6.5784 32.4993 6.5784C18.2196 6.5784 6.64359 18.1544 6.64359 32.4341Z" fill="url(#paint0_linear_1586_888)"/>
<circle opacity="0.5" cx="32.4998" cy="32.4339" r="25.8553" fill="url(#paint1_linear_1586_888)"/>
<circle cx="32.4983" cy="32.4339" r="20.1096" fill="url(#paint2_linear_1586_888)"/>
<path d="M37.8548 31.0069L28.5131 25.2994C27.2287 24.515 26.1777 25.1567 26.1777 26.7262V38.1412C26.1777 39.7108 27.2287 40.3533 28.5131 39.5681L37.8548 33.8606C39.1392 33.0762 39.1392 31.7912 37.8548 31.0069Z" fill="white"/>
<defs>
<linearGradient id="paint0_linear_1586_888" x1="0.898437" y1="0.833252" x2="64.1002" y2="64.035" gradientUnits="userSpaceOnUse">
<stop stop-color="#7A00F3"/>
<stop offset="1" stop-color="#D221EB"/>
</linearGradient>
<linearGradient id="paint1_linear_1586_888" x1="6.64453" y1="6.57861" x2="58.3551" y2="58.2891" gradientUnits="userSpaceOnUse">
<stop stop-color="#7A00F3"/>
<stop offset="1" stop-color="#D221EB"/>
</linearGradient>
<linearGradient id="paint2_linear_1586_888" x1="12.3887" y1="12.3242" x2="52.608" y2="52.5435" gradientUnits="userSpaceOnUse">
<stop stop-color="#7A00F3"/>
<stop offset="1" stop-color="#D221EB"/>
</linearGradient>
</defs>
</svg>
