<svg width="70" height="70" viewBox="0 0 70 70" fill="none" xmlns="http://www.w3.org/2000/svg">
<g filter="url(#filter0_b_1586_942)">
<rect width="70" height="70" rx="35" fill="url(#paint0_linear_1586_942)" fill-opacity="0.1"/>
<rect width="70" height="70" rx="35" fill="white" fill-opacity="0.05"/>
<rect width="70" height="70" rx="35" fill="url(#paint1_linear_1586_942)"/>
<path fill-rule="evenodd" clip-rule="evenodd" d="M41.9194 18.0632C41.0886 18.187 40.8821 18.3369 40.4775 19.1097C39.6454 20.6989 38.3968 21.4831 36.5439 21.5805L35.6555 21.6272L35.3001 21.9884C34.6568 22.6421 33.6544 24.6643 33.6589 25.2996C33.6604 25.5269 33.7586 25.7794 33.9727 26.1066C34.7856 27.3488 34.8572 29.1116 34.1484 30.4295C34.0312 30.6474 33.911 30.9099 33.8812 31.0129C33.7114 31.6012 35.2697 34.1998 36.0819 34.6824C36.2733 34.7961 36.5272 34.8515 36.8584 34.8517C38.2673 34.8526 39.6543 35.6257 40.49 36.8759C40.9863 37.6183 41.2276 37.7118 42.8071 37.773C44.0633 37.8217 45.3316 37.7075 45.6547 37.5168C45.7575 37.4561 45.9948 37.1523 46.1819 36.8419C46.3692 36.5314 46.7388 36.0779 47.0034 35.834C47.8203 35.081 48.5728 34.7823 49.8926 34.6872C50.681 34.6304 50.8349 34.5934 51.035 34.4122C51.6883 33.8202 52.8367 31.8318 52.9147 31.1574C52.9523 30.8325 52.912 30.7162 52.5975 30.2426C52.0834 29.4682 51.8689 28.7787 51.8689 27.9001C51.8689 27.0177 52.0284 26.4569 52.5429 25.5304C52.7586 25.1421 52.935 24.7198 52.935 24.592C52.935 24.0744 51.6061 21.8194 51.1172 21.5072C50.9929 21.4279 50.6014 21.3899 49.87 21.3862C48.5802 21.3798 47.8849 21.185 47.0728 20.6024C46.4859 20.1813 46.146 19.7677 45.6865 18.916C45.2502 18.1073 45.0947 18.0373 43.6621 18.0041C43.0208 17.9893 42.2366 18.0159 41.9194 18.0632ZM44.3618 22.5128C46.3989 22.8665 48.1762 24.4728 48.7217 26.453C48.8233 26.8218 48.8762 27.3291 48.8753 27.925C48.8743 28.6846 48.8343 28.948 48.6325 29.526C48.3258 30.4046 47.8858 31.1106 47.2718 31.709C46.1575 32.7951 44.8784 33.3084 43.2943 33.3052C42.2881 33.3032 41.8144 33.1959 40.8527 32.752C39.8864 32.3061 38.8372 31.3184 38.3463 30.3927C37.3892 28.5879 37.501 26.5152 38.6455 24.8475C39.5136 23.5824 40.8658 22.726 42.3849 22.4793C43.0769 22.3669 43.5701 22.3753 44.3618 22.5128ZM28.3705 36.5382C27.6624 36.6656 26.7756 36.9451 26.2447 37.2083C25.0982 37.7764 23.8737 38.8553 23.0991 39.9796L22.6387 40.648L22.6617 45.045L22.6847 49.4422L22.8764 49.4687C22.991 49.4847 23.3019 49.3393 23.6503 49.1067C25.2023 48.0712 27.1299 47.4931 29.0263 47.4946C30.1637 47.4955 30.6379 47.5794 32.6594 48.1374C35.8092 49.0071 38.1873 49.3994 40.3019 49.3982C41.6689 49.3975 42.2634 49.3221 43.3995 49.0056C44.9168 48.5829 47.2358 47.3042 49.4952 45.6445C51.0392 44.5103 52.9067 42.7231 54.9339 40.4398C55.9371 39.3099 56 39.2172 56 38.8696C56 38.5835 55.9442 38.4434 55.7528 38.2485C55.071 37.555 53.7643 37.3142 52.749 37.695C52.6223 37.7425 51.8069 38.2353 50.9371 38.79C50.0672 39.3447 49.0115 39.9667 48.5911 40.1724C47.1548 40.8748 45.5163 41.2596 43.9613 41.2596C43.3748 41.2596 43.067 41.2945 43.0073 41.3678C42.9588 41.4274 42.8992 41.7304 42.8749 42.0414C42.7639 43.4623 41.6183 44.489 40.1574 44.4769C39.7395 44.4735 39.1921 44.3055 36.9547 43.4939C34.1232 42.4669 33.9897 42.3947 33.9897 41.8912C33.9897 41.6284 34.2903 41.3462 34.57 41.3462C34.6706 41.3462 35.9258 41.7748 37.3593 42.2986C38.7928 42.8225 40.0666 43.2511 40.1899 43.2511C41.0652 43.2511 41.7973 42.2793 41.5624 41.4294C41.4226 40.9232 41.0805 40.6195 40.2752 40.2863C39.8843 40.1246 38.625 39.4825 37.4767 38.8594C36.3284 38.2363 35.0453 37.5879 34.6252 37.4183C32.4578 36.544 30.1458 36.2186 28.3705 36.5382ZM15.1383 39.4605C15.016 39.6307 15 40.4314 15 46.378C15 52.6546 15.0104 53.1153 15.1555 53.2879C15.3092 53.4706 15.3442 53.4725 18.1513 53.449L20.9916 53.4252L21.1039 53.2088C21.1915 53.0399 21.2165 51.525 21.2175 46.3226C21.2187 40.4248 21.2029 39.6307 21.0805 39.4605C20.9426 39.2685 20.9361 39.268 18.1094 39.268C15.2828 39.268 15.2763 39.2685 15.1383 39.4605Z" fill="white"/>
</g>
<defs>
<filter id="filter0_b_1586_942" x="-34.7802" y="-34.7802" width="139.56" height="139.56" filterUnits="userSpaceOnUse" color-interpolation-filters="sRGB">
<feFlood flood-opacity="0" result="BackgroundImageFix"/>
<feGaussianBlur in="BackgroundImageFix" stdDeviation="17.3901"/>
<feComposite in2="SourceAlpha" operator="in" result="effect1_backgroundBlur_1586_942"/>
<feBlend mode="normal" in="SourceGraphic" in2="effect1_backgroundBlur_1586_942" result="shape"/>
</filter>
<linearGradient id="paint0_linear_1586_942" x1="0" y1="0" x2="70" y2="70" gradientUnits="userSpaceOnUse">
<stop stop-color="#FF8100"/>
<stop offset="1" stop-color="#FFD101"/>
</linearGradient>
<linearGradient id="paint1_linear_1586_942" x1="28.9754" y1="14.1346" x2="55.0666" y2="58.0884" gradientUnits="userSpaceOnUse">
<stop stop-color="#AE00FF"/>
<stop offset="1" stop-color="#0500FF" stop-opacity="0.35"/>
</linearGradient>
</defs>
</svg>
