<svg xmlns="http://www.w3.org/2000/svg" xmlns:xlink="http://www.w3.org/1999/xlink" width="558" height="738" fill="none" xmlns:v="https://vecta.io/nano"><mask id="A" fill="#fff"><path d="M397.216 235.988H160.714c-14.444.013-28.749-2.929-42.097-8.657s-25.475-14.129-35.688-24.723-18.314-23.174-23.836-37.019-8.358-28.683-8.346-43.666v-.822c.033-30.242 11.629-59.235 32.245-80.62s48.567-33.413 77.723-33.447h346.528V0H160.714c-30.953.036-60.628 12.807-82.515 35.51S44 88.994 43.965 121.101v.822c-.012 15.907 3 31.659 8.863 46.358s14.462 28.053 25.306 39.3 23.718 20.167 37.888 26.249 29.357 9.205 44.692 9.193h236.502c29.155.034 57.107 12.063 77.723 33.448s32.212 50.378 32.244 80.62v.819c.01 14.983-2.827 29.82-8.35 43.664s-13.622 26.423-23.836 37.017-22.34 18.996-35.686 24.725-27.651 8.673-42.095 8.662H160.714c-30.953.037-60.628 12.807-82.515 35.51S44 560.971 43.965 593.078v.822c.035 32.107 12.347 62.888 34.234 85.591s51.562 35.473 82.515 35.509h336.484c.9 0 1.762-.37 2.398-1.03s.993-1.554.993-2.487-.357-1.828-.993-2.487-1.498-1.03-2.398-1.03H160.714c-29.155-.034-57.106-12.062-77.722-33.447S50.779 624.142 50.747 593.9v-.822c.033-30.242 11.629-59.235 32.245-80.619s48.567-33.413 77.722-33.446h236.502c15.335.01 30.521-3.115 44.69-9.197s27.044-15.002 37.887-26.25 19.443-24.602 25.306-39.299a124.95 124.95 0 0 0 8.866-46.357v-.819c-.035-32.107-12.346-62.889-34.233-85.592s-51.563-35.474-82.516-35.511z"/></mask><path d="M397.216 235.988H160.714c-14.444.013-28.749-2.929-42.097-8.657s-25.475-14.129-35.688-24.723-18.314-23.174-23.836-37.019-8.358-28.683-8.346-43.666v-.822c.033-30.242 11.629-59.235 32.245-80.62s48.567-33.413 77.723-33.447h346.528V0H160.714c-30.953.036-60.628 12.807-82.515 35.51S44 88.994 43.965 121.101v.822c-.012 15.907 3 31.659 8.863 46.358s14.462 28.053 25.306 39.3 23.718 20.167 37.888 26.249 29.357 9.205 44.692 9.193h236.502c29.155.034 57.107 12.063 77.723 33.448s32.212 50.378 32.244 80.62v.819c.01 14.983-2.827 29.82-8.35 43.664s-13.622 26.423-23.836 37.017-22.34 18.996-35.686 24.725-27.651 8.673-42.095 8.662H160.714c-30.953.037-60.628 12.807-82.515 35.51S44 560.971 43.965 593.078v.822c.035 32.107 12.347 62.888 34.234 85.591s51.562 35.473 82.515 35.509h336.484c.9 0 1.762-.37 2.398-1.03s.993-1.554.993-2.487-.357-1.828-.993-2.487-1.498-1.03-2.398-1.03H160.714c-29.155-.034-57.106-12.062-77.722-33.447S50.779 624.142 50.747 593.9v-.822c.033-30.242 11.629-59.235 32.245-80.619s48.567-33.413 77.722-33.446h236.502c15.335.01 30.521-3.115 44.69-9.197s27.044-15.002 37.887-26.25 19.443-24.602 25.306-39.299a124.95 124.95 0 0 0 8.866-46.357v-.819c-.035-32.107-12.346-62.889-34.233-85.592s-51.563-35.474-82.516-35.511z" fill="url(#B)"/><path d="M397.216 235.988l.001-1h-.001v1zm-236.502 0v-1h0v1zm-42.097-8.657l.395-.919-.395.919zm-67.87-105.408l1 .001v-.001h-1zm0-.822l-1-.001v.001h1zM160.714 7.034v-1h-.001l.001 1zm346.528 0v1h1v-1h-1zm0-7.034h1v-1h-1v1zM160.714 0v-1h-.001l.001 1zM43.965 121.101l-1-.001v.001h1zm0 .822l1 .001v-.001h-1zm34.169 85.658l-.72.694.72-.694zm37.888 26.249l.395-.919-.395.919zm44.692 9.193v-1h0v1zm236.502 0l.001-1h-.001v1zm77.723 33.448l.72-.694-.72.694zm32.244 80.62h1v-.001l-1 .001zm0 .819h-1v.001l1-.001zm-8.35 43.664l-.929-.37.929.37zm-23.836 37.017l-.72-.694.72.694zm-35.686 24.725l-.395-.919.395.919zm-42.095 8.662l.001-1h-.001v1zm-236.502 0v-1h-.001l.001 1zm-82.515 35.51l.72.694-.72-.694zm-34.234 85.59l-1-.001v.001h1zm0 .822h-1v.001l1-.001zM160.714 715l-.001 1h.001v-1zm338.882-1.03l.72.694-.72-.694zm0-4.974l-.72.694.72-.694zm-338.882-1.03l-.001 1h.001v-1zM50.747 593.9h-1v.001l1-.001zm0-.822l-1-.001v.001h1zm32.245-80.619l.72.694-.72-.694zm77.722-33.446v-1h-.001l.001 1zm236.502 0l.001-1h-.001v1zm107.883-74.746l.929.37-.929-.37zm8.866-46.357h-1v.001l1-.001zm0-.819h1v-.001l-1 .001zm-34.233-85.592l-.72.694.72-.694zm-82.516-36.511h-1.971v2h1.971v-2zm-5.912 0h-3.942v2h3.942v-2zm-7.884 0h-3.942v2h3.942v-2zm-7.883 0h-3.942v2h3.942v-2zm-7.884 0h-3.941v2h3.941v-2zm-7.883 0h-3.942v2h3.942v-2zm-7.883 0h-3.942v2h3.942v-2zm-7.884 0h-3.941v2h3.941v-2zm-7.883 0h-3.942v2h3.942v-2zm-7.884 0h-3.941v2h3.941v-2zm-7.883 0h-3.942v2h3.942v-2zm-7.883 0h-3.942v2h3.942v-2zm-7.884 0h-3.941v2h3.941v-2zm-7.883 0h-3.942v2h3.942v-2zm-7.884 0h-3.941v2h3.941v-2zm-7.883 0h-3.942v2h3.942v-2zm-7.883 0h-3.942v2h3.942v-2zm-7.884 0h-3.941v2h3.941v-2zm-7.883 0h-3.942v2h3.942v-2zm-7.883 0h-3.942v2h3.942v-2zm-7.884 0h-3.942v2h3.942v-2zm-7.883 0h-3.942v2h3.942v-2zm-7.884 0h-3.941v2h3.941v-2zm-7.883 0h-3.942v2h3.942v-2zm-7.883 0h-3.942v2h3.942v-2zm-7.884 0h-3.942v2h3.942v-2zm-7.883 0h-3.942v2h3.942v-2zm-7.884 0h-3.941v2h3.941v-2zm-7.883 0h-3.942v2h3.942v-2zm-7.883 0h-3.942v2h3.942v-2zm-7.884 0h-1.971v2h1.971v-2zm-1.971 0a102.1 102.1 0 0 1-2.144-.02l-.039 2 2.184.02-.001-2zm-6.427-.191l-4.272-.346-.202 1.99 4.354.352.12-1.996zm-8.527-.866l-4.23-.693-.363 1.967 4.31.706.283-1.98zm-8.428-1.558l-4.16-1.034-.522 1.931 4.239 1.054.443-1.951zm-8.275-2.236l-4.063-1.368-.676 1.882 4.139 1.393.6-1.907zm-8.067-2.899l-1.978-.826-.789 1.838 2.016.841.751-1.853zm-1.978-.826l-1.981-.873-.826 1.821 2.018.89.789-1.838zm-5.887-2.741l-3.828-2.023-.97 1.749 3.899 2.061.899-1.787zm-7.572-4.199l-3.653-2.324-1.107 1.666 3.721 2.367 1.039-1.709zm-7.211-4.792l-3.457-2.608-1.236 1.572 3.52 2.656 1.172-1.62zm-6.809-5.351l-3.241-2.873-1.356 1.47 3.3 2.925 1.297-1.522zm-6.366-5.871l-1.518-1.545-1.44 1.389 1.546 1.572 1.412-1.416zm-1.518-1.545l-1.259-1.327-1.463 1.364 1.282 1.352 1.44-1.389zm-3.711-4.043l-2.361-2.796-1.549 1.266 2.403 2.845 1.507-1.315zm-4.63-5.667l-2.174-2.943-1.628 1.162 2.213 2.995 1.589-1.214zm-4.252-5.956l-1.979-3.078-1.7 1.054 2.014 3.133 1.665-1.109zm-3.859-6.219l-1.777-3.199-1.764.943 1.808 3.256 1.733-1zm-3.451-6.454l-1.569-3.306-1.82.828 1.597 3.365 1.793-.887zm-3.033-6.661l-.691-1.695-1.858.741.703 1.724 1.846-.77zm-.691-1.695l-.671-1.721-1.869.711.682 1.751 1.858-.741zm-1.929-5.195l-1.147-3.513-1.911.591 1.167 3.573 1.891-.651zm-2.182-7.06l-.921-3.579-1.945.468.937 3.64 1.929-.529zm-1.729-7.184l-.693-3.63-1.97.344.705 3.692 1.958-.406zm-1.271-7.28l-.462-3.666-1.988.218.47 3.729 1.98-.281zm-.808-7.346l-.23-3.688-1.998.093.234 3.751 1.994-.156zm-.343-7.381l-.013-1.848-2-.002.013 1.879 2-.029zm-.013-1.849v-.206h-2v.206h2zm0-.616v-.206h-2v.206h2zm0-.205l.019-2.006-2-.036-.02 2.04 2 .002zm.16-6.013l.278-4.001-1.992-.173-.283 4.069 1.997.105zm.692-7.989l.551-3.973-1.976-.309-.56 4.041 1.985.241zm1.237-7.924l.822-3.925-1.95-.443-.836 3.992 1.964.376zm1.777-7.82l1.089-3.859-1.915-.576-1.108 3.926 1.934.51zm2.311-7.679l1.352-3.775-1.871-.707-1.376 3.84 1.894.642zm2.835-7.5l1.611-3.672-1.817-.835-1.639 3.736 1.845.772zm3.348-7.285l1.863-3.55-1.755-.96-1.895 3.612 1.787.898zm3.848-7.033l2.107-3.411-1.683-1.081-2.144 3.471 1.72 1.021zm4.333-6.745l2.343-3.253-1.602-1.197-2.384 3.311 1.644 1.14zm4.799-6.421l2.568-3.078-1.512-1.309-2.614 3.133 1.558 1.254zm5.245-6.062l1.378-1.456-1.44-1.388-1.403 1.482 1.465 1.362zm1.378-1.456l1.372-1.398-1.415-1.413-1.397 1.424 1.44 1.388zm4.187-4.12l2.91-2.621-1.312-1.51-2.963 2.668 1.364 1.462zm5.911-5.135l3.09-2.407-1.201-1.599-3.146 2.451 1.257 1.556zm6.262-4.7l3.254-2.178-1.083-1.682-3.313 2.219 1.142 1.642zm6.584-4.238l3.402-1.937-.958-1.756-3.465 1.973 1.021 1.72zm6.872-3.75l3.534-1.685-.828-1.821-3.6 1.716.894 1.789zm7.127-3.239l3.647-1.422-.692-1.876-3.716 1.448.761 1.85zm7.344-2.709l3.742-1.15-.552-1.922-3.813 1.171.623 1.901zm7.523-2.16l3.817-.87-.409-1.958-3.889.887.481 1.941zm7.662-1.598l3.871-.585-.262-1.983-3.944.596.335 1.972zm7.76-1.025l3.903-.296-.114-1.997-3.977.301.188 1.991zm7.814-.446l1.958-.02-.003-2-1.995.021.04 2zm1.956-.02h2.015v-2h-2.015v2zm6.045 0h4.029v-2h-4.029v2zm8.058 0h4.03v-2h-4.03v2zm8.059 0h4.029v-2h-4.029v2zm8.059 0h4.029v-2h-4.029v2zm8.059 0h4.029v-2h-4.029v2zm8.058 0h4.03v-2h-4.03v2zm8.059 0h4.03v-2h-4.03v2zm8.059 0h4.029v-2h-4.029v2zm8.059 0h4.029v-2h-4.029v2zm8.059 0h4.029v-2h-4.029v2zm8.058 0h4.03v-2h-4.03v2zm8.059 0h4.029v-2h-4.029v2zm8.059 0h4.029v-2h-4.029v2zm8.059 0h4.029v-2h-4.029v2zm8.058 0h4.03v-2h-4.03v2zm8.059 0h4.03v-2h-4.03v2zm8.059 0h4.029v-2h-4.029v2zm8.059 0h4.029v-2h-4.029v2zm8.059 0h4.029v-2h-4.029v2zm8.058 0h4.03v-2h-4.03v2zm8.059 0h4.03v-2h-4.03v2zm8.059 0h4.029v-2h-4.029v2zm8.059 0h4.029v-2h-4.029v2zm8.058 0h4.03v-2h-4.03v2zm8.059 0h4.03v-2h-4.03v2zm8.059 0h4.029v-2h-4.029v2zm8.059 0h4.029v-2h-4.029v2zm8.059 0h4.029v-2h-4.029v2zm8.058 0h4.03v-2h-4.03v2zm8.059 0h4.029v-2h-4.029v2zm8.059 0h4.029v-2h-4.029v2zm8.059 0h4.029v-2h-4.029v2zm8.058 0h4.03v-2h-4.03v2zm8.059 0h4.03v-2h-4.03v2zm8.059 0h4.029v-2h-4.029v2zm8.059 0h4.029v-2h-4.029v2zm8.059 0h4.029v-2h-4.029v2zm8.058 0h4.03v-2h-4.03v2zm8.059 0h4.029v-2h-4.029v2zm8.059 0h4.029v-2h-4.029v2zm8.059 0h4.029v-2h-4.029v2zm8.058 0h4.03v-2h-4.03v2zm8.059 0h2.015v-2h-2.015v2zm3.015-1v-.02-.02-.02-.02-.02-.02-.02-.02-.02-.02-.02-.02-.02-.02-.02-.02-.02-.021-.021-.021-.021-.021-.021-.021-.021-.021-.021-.021-.021-.021V6.4v-.021-.021-.021-.021-.021-.021-.021-.021-.021-.021-.021-.021-.021-.021-.021-.021-.021-.021-.021-.021-.021-.021-.021-.021-.021-.021-.021-.021V5.8v-.021-.021-.021-.021-.021-.021-.021-.021-.021-.021-.021-.021-.021-.021-.021-.021-.021-.021-.021-.021-.021-.021-.021-.021-.021l-2-.007v.021.021.021.021.021.021.021.021.021.021.021.021.021.021.021.021.021.021.021.021.021.021.021.021.021.021.021.021.021.021.021.021.021.021V6v.021.021.021.021.021.021.021.021.021.021.021.021.021.021.021.021.021.021.021.021.021.021.021.021.021.021.021.021.021.021.021.021.021.02.02.02.02.02.02.02.02.02.02.02.02.02.02.02.02.02l2 .007zm0-5.277v-.025-.025-.024-.024-.024-.024-.024-.024-.024-.023-.023-.023-.023-.023-.023-.023-.022-.022-.022-.022-.022-.022-.022-.021-.021-.021-.021-.021-.021-.02-.02-.02-.02-.025-.025-.024V.92.896.872.849.826.804.781.759.737.716.694.673.653.632.612.588.565.542.519.497.475.454.433.413.39.367.345.324.303.283.261.24.219.197.176.154.134.113.092.072.051.031.011c0-.011 0-.011-1-.011h-1v.021.02.021.021.022.02.022.021.02.022.02.021.022.023.02.021.022.022.023.02.021.021.021.022.022.023.023V.6.624v.02.021.021.021.021.022.022.022.023.023.023.023.024.024.024.024.025.025.02.02.02.021.021.021.021.021.021.022.022.022.022.022.022.022.023.023.023.023.023.023.023.024.024.024.024.024.024.024.025.025l2 .006zm-1-2.758h-2.015v2h2.015v-2zm-6.044 0h-4.029v2h4.029v-2zm-8.059 0h-4.029v2h4.029v-2zm-8.059 0h-4.029v2h4.029v-2zm-8.058 0h-4.03v2h4.03v-2zm-8.059 0h-4.03v2h4.03v-2zm-8.059 0h-4.029v2h4.029v-2zm-8.059 0h-4.029v2h4.029v-2zm-8.058 0h-4.03v2h4.03v-2zm-8.059 0h-4.03v2h4.03v-2zm-8.059 0h-4.029v2h4.029v-2zm-8.059 0h-4.029v2h4.029v-2zm-8.059 0h-4.029v2h4.029v-2zm-8.058 0h-4.03v2h4.03v-2zm-8.059 0h-4.03v2h4.03v-2zm-8.059 0h-4.029v2h4.029v-2zm-8.059 0h-4.029v2h4.029v-2zm-8.058 0h-4.03v2h4.03v-2zm-8.059 0h-4.03v2h4.03v-2zm-8.059 0h-4.029v2h4.029v-2zm-8.059 0h-4.029v2h4.029v-2zm-8.059 0h-4.029v2h4.029v-2zm-8.058 0h-4.03v2h4.03v-2zm-8.059 0h-4.03v2h4.03v-2zm-8.059 0h-4.029v2h4.029v-2zm-8.059 0h-4.029v2h4.029v-2zm-8.058 0h-4.03v2h4.03v-2zm-8.059 0h-4.03v2h4.03v-2zm-8.059 0h-4.029v2h4.029v-2zm-8.059 0h-4.029v2h4.029v-2zm-8.059 0h-4.029v2h4.029v-2zm-8.058 0h-4.03v2h4.03v-2zm-8.059 0h-4.03v2h4.03v-2zm-8.059 0h-4.029v2h4.029v-2zm-8.059 0h-4.029v2h4.029v-2zM227.2-1h-4.03v2h4.03v-2zm-8.059 0h-4.03v2h4.03v-2zm-8.059 0h-4.029v2h4.029v-2zm-8.059 0h-4.029v2h4.029v-2zm-8.059 0h-4.029v2h4.029v-2zm-8.058 0h-4.03v2h4.03v-2zm-8.059 0h-4.03v2h4.03v-2zm-8.059 0h-4.029v2h4.029v-2zm-8.059 0h-2.015v2h2.015v-2zm-2.016 0l-1.94.019.036 2L160.716 1l-.003-2zm-5.817.156l-3.871.269.173 1.993 3.803-.264-.105-1.997zm-7.729.67l-3.843.532.308 1.976 3.775-.523-.24-1.985zm-7.666 1.195l-3.797.792.441 1.951 3.732-.778-.376-1.965zm-7.566 1.713L128.2 3.781l.573 1.916 3.67-1.03-.508-1.935zm-7.432 2.222l-3.656 1.298.701 1.873 3.592-1.275-.637-1.896zm-7.266 2.718l-3.56 1.54.825 1.822 3.499-1.514-.764-1.849zm-7.066 3.199l-3.449 1.775.945 1.763 3.389-1.744-.885-1.793zm-6.837 3.664l-3.323 2 1.06 1.696 3.266-1.966-1.003-1.73zm-6.578 4.109l-3.184 2.215 1.169 1.623 3.13-2.178-1.115-1.66zm-6.293 4.534l-3.03 2.419 1.273 1.543 2.979-2.378-1.222-1.583zm-5.981 4.936l-2.867 2.612 1.371 1.456 2.819-2.568-1.323-1.5zm-5.647 5.315l-1.358 1.386 1.44 1.388 1.335-1.363-1.417-1.411zm-1.358 1.386l-1.366 1.441 1.463 1.364 1.343-1.416-1.44-1.388zm-4.025 4.387l-2.561 3.032 1.549 1.265 2.519-2.982-1.507-1.315zm-5.021 6.147l-2.357 3.193 1.628 1.161 2.318-3.14-1.59-1.214zm-4.609 6.46l-2.145 3.339 1.7 1.054 2.11-3.284-1.665-1.108zm-4.181 6.745l-1.925 3.47 1.764.942 1.894-3.414-1.733-.998zm-3.738 7l-1.699 3.586 1.821.827 1.671-3.528-1.794-.885zm-3.282 7.224l-1.467 3.687 1.87.71 1.443-3.628-1.846-.769zm-2.816 7.418l-1.23 3.772 1.911.59 1.211-3.712-1.891-.65zm-2.341 7.581l-.99 3.842 1.944.468.974-3.781-1.929-.529zm-1.858 7.713l-.746 3.897 1.97.345.734-3.835-1.958-.407zm-1.369 7.815l-.5 3.936 1.988.22.492-3.873-1.98-.283zm-.876 7.885l-.252 3.96 1.998.096.248-3.897-1.994-.159zm-.381 7.924l-.018 1.985 2 .002.017-1.953-2-.034zm-.018 1.986v.206h2v-.206h-2zm0 .616v.206h2v-.206h-2zm0 .205l.014 1.994 2-.03-.014-1.962-2-.002zm.137 5.981l.248 3.98 1.994-.156-.244-3.917-1.998.093zm.622 7.951l.499 3.957 1.98-.282-.491-3.894-1.988.219zm1.123 7.896l.748 3.918 1.958-.406-.736-3.856-1.97.344zm1.62 7.81l.995 3.862 1.929-.529-.979-3.801-1.944.468zm2.112 7.691l1.238 3.792 1.891-.652-1.218-3.73-1.911.59zm2.597 7.542l.724 1.858 1.858-.741-.712-1.829-1.869.712zm.724 1.858l.747 1.829 1.846-.77-.735-1.8-1.858.741zm2.326 5.451l1.694 3.57 1.793-.886-1.667-3.513-1.82.829zm3.502 7.084l1.919 3.454 1.733-.999-1.888-3.398-1.764.943zm3.948 6.845l2.137 3.324 1.665-1.109-2.103-3.269-1.7 1.054zm4.381 6.577l2.348 3.179 1.589-1.214-2.31-3.127-1.628 1.162zm4.799 6.28l2.55 3.019 1.507-1.315-2.508-2.97-1.549 1.266zm5.198 5.953l1.36 1.434 1.44-1.388-1.337-1.41-1.463 1.364zm1.36 1.434l1.365 1.393 1.417-1.412-1.342-1.369-1.44 1.388zm4.161 4.11l2.884 2.625 1.322-1.501-2.835-2.581-1.37 1.457zm5.852 5.153l3.05 2.43 1.22-1.584-2.998-2.389-1.272 1.543zm6.178 4.758l3.204 2.223 1.113-1.662-3.149-2.185-1.167 1.624zm6.48 4.338l3.345 2.005.999-1.733-3.288-1.97-1.056 1.698zm6.755 3.896l3.472 1.776.881-1.795-3.412-1.746-.941 1.765zm7.002 3.435l1.786.784.789-1.838-1.755-.771-.82 1.825zm1.786.784l1.781.747.758-1.851-1.75-.734-.789 1.838zm5.379 2.15l3.643 1.282.632-1.898-3.58-1.259-.695 1.875zm7.327 2.44l3.722 1.033.502-1.936-3.656-1.015-.568 1.918zm7.476 1.94l3.783.779.37-1.965-3.716-.766-.437 1.952zm7.59 1.43l3.827.52.236-1.986-3.759-.511-.304 1.977zm7.67.911l3.854.26.1-1.998-3.786-.255-.168 1.993zm7.714.388l1.931.015-.001-2a120 120 0 0 1-1.898-.015l-.032 2zm1.93.015h1.971v-2h-1.971v2zm5.913 0h3.942v-2h-3.942v2zm7.883 0h3.942v-2h-3.942v2zm7.884 0h3.941v-2h-3.941v2zm7.883 0h3.942v-2h-3.942v2zm7.884 0h3.941v-2h-3.941v2zm7.883 0h3.942v-2h-3.942v2zm7.883 0h3.942v-2h-3.942v2zm7.884 0h3.941v-2h-3.941v2zm7.883 0h3.942v-2h-3.942v2zm7.883 0h3.942v-2h-3.942v2zm7.884 0h3.942v-2h-3.942v2zm7.883 0h3.942v-2h-3.942v2zm7.884 0h3.941v-2h-3.941v2zm7.883 0h3.942v-2h-3.942v2zm7.883 0h3.942v-2h-3.942v2zm7.884 0h3.942v-2h-3.942v2zm7.883 0h3.942v-2h-3.942v2zm7.884 0h3.941v-2h-3.941v2zm7.883 0h3.942v-2h-3.942v2zm7.883 0h3.942v-2h-3.942v2zm7.884 0h3.942v-2h-3.942v2zm7.883 0h3.942v-2h-3.942v2zm7.884 0h3.941v-2h-3.941v2zm7.883 0h3.942v-2h-3.942v2zm7.883 0h3.942v-2h-3.942v2zm7.884 0h3.941v-2h-3.941v2zm7.883 0h3.942v-2h-3.942v2zm7.884 0h3.941v-2h-3.941v2zm7.883 0h3.942v-2h-3.942v2zm7.883 0h1.971v-2h-1.971v2zm1.97 0l1.958.02.039-1.999-1.995-.021-.002 2zm5.869.171l3.903.295.188-1.991-3.977-.301-.114 1.997zm7.792.736l3.87.585.336-1.972-3.944-.596-.262 1.983zm7.716 1.313l3.816.87.481-1.942-3.889-.886-.408 1.958zm7.598 1.881l3.742 1.149.622-1.9-3.812-1.172-.552 1.923zm7.439 2.436l3.647 1.422.76-1.85-3.715-1.448-.692 1.876zm7.24 2.977l3.533 1.685.894-1.79-3.6-1.716-.827 1.821zm7.004 3.497l3.402 1.938 1.021-1.72-3.465-1.973-.958 1.755zm6.731 3.997l3.254 2.178 1.143-1.641-3.314-2.219-1.083 1.682zm6.427 4.472l3.089 2.407 1.258-1.556-3.147-2.45-1.2 1.599zm6.09 4.921l2.91 2.621 1.365-1.463-2.963-2.668-1.312 1.51zm5.726 5.342l1.372 1.399 1.44-1.388-1.397-1.424-1.415 1.413zm1.372 1.399l1.378 1.455 1.465-1.362-1.403-1.481-1.44 1.388zm4.055 4.439l2.568 3.078 1.558-1.253-2.614-3.133-1.512 1.308zm5.025 6.246l2.342 3.253 1.644-1.14-2.384-3.31-1.602 1.197zm4.568 6.587l2.107 3.411 1.72-1.021-2.144-3.471-1.683 1.081zm4.093 6.894l1.863 3.551 1.787-.898-1.895-3.613-1.755.96zm3.6 7.164l1.611 3.672 1.845-.771-1.639-3.736-1.817.835zm3.093 7.398l1.353 3.775 1.894-.642-1.376-3.84-1.871.707zm2.574 7.594l1.089 3.859 1.934-.51-1.108-3.925-1.915.576zm2.045 7.754l.822 3.925 1.964-.376-.836-3.993-1.95.444zm1.508 7.876l.551 3.972 1.985-.24-.56-4.041-1.976.309zm.965 7.96l.278 4.001 1.997-.104-.283-4.069-1.992.172zm.419 8.009l.019 2.006 2-.002-.019-2.04-2 .036zm.019 2.005v.205h2v-.205h-2zm0 .615v.204h2v-.204h-2zm0 .205l-.013 1.848 2 .03.013-1.879-2 .001zm-.127 5.541l-.23 3.689 1.993.156.235-3.751-1.998-.094zm-.577 7.368l-.462 3.666 1.98.281.47-3.729-1.988-.218zm-1.04 7.315l-.694 3.63 1.959.406.705-3.692-1.97-.344zm-1.501 7.236l-.922 3.578 1.929.53.937-3.64-1.944-.468zm-1.957 7.125l-1.147 3.512 1.891.652 1.167-3.573-1.911-.591zm-2.406 6.986l-.671 1.722 1.858.741.682-1.751-1.869-.712zm-.671 1.722l-.691 1.694 1.845.771.704-1.724-1.858-.741zm-2.155 5.049l-1.569 3.306 1.793.887 1.597-3.364-1.821-.829zm-3.243 6.561l-1.778 3.199 1.733.999 1.808-3.255-1.763-.943zm-3.657 6.339l-1.979 3.078 1.664 1.109 2.015-3.132-1.7-1.055zm-4.057 6.091l-2.174 2.943 1.589 1.215 2.213-2.996-1.628-1.162zm-4.443 5.814l-2.361 2.795 1.506 1.316 2.404-2.845-1.549-1.266zm-4.813 5.512l-1.259 1.327 1.44 1.388 1.282-1.351-1.463-1.364zm-1.259 1.327l-1.518 1.545 1.413 1.416 1.545-1.573-1.44-1.388zm-4.643 4.543l-3.241 2.873 1.297 1.522 3.3-2.925-1.356-1.47zm-6.592 5.615l-3.457 2.608 1.173 1.621 3.52-2.656-1.236-1.573zm-7.015 5.077l-3.653 2.324 1.04 1.709 3.721-2.368-1.108-1.665zm-7.396 4.5l-3.828 2.024.899 1.786 3.899-2.061-.97-1.749zm-7.734 3.891l-1.981.874.789 1.838 2.018-.89-.826-1.822zm-1.981.874l-1.978.826.752 1.853 2.015-.841-.789-1.838zm-5.982 2.357l-4.062 1.368.6 1.908 4.139-1.394-.677-1.882zm-8.177 2.571l-4.159 1.035.443 1.95 4.239-1.054-.523-1.931zm-8.358 1.9l-4.229.694.283 1.98 4.31-.707-.364-1.967zm-8.484 1.214l-4.272.347.121 1.996 4.353-.353-.202-1.99zm-8.555.519l-2.143.02-.002 2 2.184-.02-.039-2zm-2.144.02h-1.971v2h1.971v-2zm-5.912 0h-3.942v2h3.942v-2zm-7.884 0h-3.942v2h3.942v-2zm-7.883 0h-3.942v2h3.942v-2zm-7.884 0h-3.941v2h3.941v-2zm-7.883 0h-3.942v2h3.942v-2zm-7.883 0h-3.942v2h3.942v-2zm-7.884 0h-3.941v2h3.941v-2zm-7.883 0h-3.942v2h3.942v-2zm-7.884 0h-3.941v2h3.941v-2zm-7.883 0h-3.942v2h3.942v-2zm-7.883 0h-3.942v2h3.942v-2zm-7.884 0h-3.941v2h3.941v-2zm-7.883 0h-3.942v2h3.942v-2zm-7.884 0h-3.941v2h3.941v-2zm-7.883 0h-3.942v2h3.942v-2zm-7.883 0h-3.942v2h3.942v-2zm-7.884 0h-3.941v2h3.941v-2zm-7.883 0h-3.942v2h3.942v-2zm-7.883 0h-3.942v2h3.942v-2zm-7.884 0h-3.942v2h3.942v-2zm-7.883 0h-3.942v2h3.942v-2zm-7.884 0h-3.941v2h3.941v-2zm-7.883 0h-3.942v2h3.942v-2zm-7.883 0h-3.942v2h3.942v-2zm-7.884 0h-3.942v2h3.942v-2zm-7.883 0h-3.942v2h3.942v-2zm-7.884 0h-3.941v2h3.941v-2zm-7.883 0h-3.942v2h3.942v-2zm-7.883 0h-3.942v2h3.942v-2zm-7.884 0h-1.971v2h1.971v-2zm-1.972 0l-1.94.019.036 2 1.907-.019-.003-2zm-5.817.156l-3.87.269.172 1.992 3.803-.264-.105-1.997zm-7.729.67l-3.843.532.308 1.976 3.775-.523-.24-1.985zm-7.665 1.194l-3.798.793.442 1.95 3.731-.778-.375-1.965zm-7.566 1.713l-3.736 1.048.573 1.916 3.67-1.029-.507-1.935zm-7.433 2.222l-3.656 1.297.701 1.874 3.592-1.276-.637-1.895zm-7.265 2.717l-3.56 1.541.824 1.822 3.499-1.514-.763-1.849zm-7.067 3.199l-3.449 1.775.945 1.763 3.389-1.744-.885-1.794zm-6.836 3.664l-3.324 2 1.06 1.696 3.266-1.966-1.002-1.73zm-6.578 4.109l-3.184 2.216 1.169 1.622 3.129-2.178-1.115-1.66zm-6.293 4.535l-3.03 2.419 1.273 1.542 2.979-2.378-1.222-1.583zm-5.981 4.936l-2.867 2.612 1.371 1.457 2.819-2.569-1.323-1.5zm-5.647 5.315l-1.358 1.386 1.44 1.388 1.335-1.363-1.417-1.411zm-1.358 1.386l-1.366 1.44 1.463 1.364 1.343-1.416-1.44-1.388zm-4.025 4.386l-2.561 3.033 1.549 1.265 2.519-2.982-1.507-1.316zm-5.021 6.147l-2.357 3.192 1.628 1.162 2.318-3.14-1.59-1.214zm-4.609 6.46l-2.145 3.339 1.7 1.054 2.11-3.285-1.665-1.108zm-4.181 6.745l-1.925 3.47 1.764.942 1.894-3.414-1.733-.998zm-3.738 7l-1.699 3.586 1.821.827 1.671-3.528-1.794-.885zm-3.282 7.224l-1.467 3.687 1.87.709 1.443-3.627-1.846-.769zm-2.816 7.418l-1.23 3.772 1.911.59 1.211-3.712-1.891-.65zm-2.341 7.581l-.99 3.842 1.944.468.974-3.781-1.929-.529zm-1.858 7.713l-.746 3.897 1.97.345.734-3.835-1.958-.407zm-1.369 7.815l-.5 3.936 1.988.22.492-3.873-1.98-.283zm-.876 7.885l-.253 3.96 1.998.096.248-3.897-1.994-.159zm-.381 7.924l-.018 1.985 2 .002.017-1.953-2-.034zm-.018 1.986v.206h2v-.206h-2zm0 .617v.205h2v-.205h-2zm0 .206l.018 1.985 2-.034-.017-1.953-2 .002zm.146 5.949l.253 3.96 1.994-.158-.248-3.898-1.998.096zm.629 7.91l.5 3.935 1.98-.283-.492-3.873-1.988.221zm1.123 7.853l.746 3.897 1.958-.407-.734-3.835-1.97.345zm1.614 7.768l.99 3.842 1.929-.529-.974-3.781-1.944.468zm2.1 7.651l1.23 3.772 1.891-.65-1.211-3.712-1.911.59zm2.579 7.504l1.467 3.686 1.846-.769-1.444-3.627-1.87.71zm3.05 7.324l1.699 3.586 1.794-.885-1.671-3.528-1.821.827zm3.511 7.116l1.925 3.47 1.733-.998-1.894-3.414-1.764.942zm3.961 6.876l2.145 3.339 1.665-1.108-2.11-3.284-1.7 1.053zm4.397 6.607l2.357 3.192 1.59-1.213-2.318-3.141-1.628 1.162zm4.817 6.307l2.561 3.032 1.507-1.315-2.519-2.983-1.549 1.266zm5.22 5.978l1.366 1.441 1.44-1.388-1.343-1.417-1.463 1.364zm1.366 1.441l1.358 1.385 1.417-1.411-1.335-1.362-1.44 1.388zm4.137 4.088l2.867 2.612 1.323-1.5-2.819-2.568-1.371 1.456zm5.817 5.13l3.031 2.419 1.222-1.584-2.979-2.378-1.273 1.543zm6.139 4.738l3.184 2.215 1.115-1.66-3.129-2.178-1.169 1.623zm6.438 4.324l3.324 2 1.002-1.73-3.266-1.966-1.06 1.696zm6.711 3.889l3.449 1.775.885-1.793-3.389-1.745-.945 1.763zm6.956 3.434l3.56 1.54.763-1.849-3.499-1.513-.824 1.822zm7.169 2.96l3.656 1.298.637-1.896-3.592-1.275-.701 1.873zm7.353 2.471l3.736 1.048.507-1.934-3.67-1.03-.573 1.916zm7.504 1.969l3.798.792.375-1.965-3.731-.778-.442 1.951zm7.62 1.455l3.843.532.24-1.986-3.775-.523-.308 1.977zm7.702.932l3.87.269.105-1.997-3.803-.264-.172 1.992zm7.747.406l1.94.019.003-2-1.907-.018-.036 1.999zm1.941.019h2.003v-2h-2.003v2zm6.009 0h4.006v-2h-4.006v2zm8.012 0h4.005v-2h-4.005v2zm8.011 0h4.006v-2h-4.006v2zm8.012 0h4.005v-2h-4.005v2zm8.011 0h4.006v-2h-4.006v2zm8.012 0h4.005v-2h-4.005v2zm8.011 0h4.006v-2h-4.006v2zm8.012 0h4.006v-2h-4.006v2zm8.011 0h4.006v-2h-4.006v2zm8.012 0h4.006v-2h-4.006v2zm8.011 0h4.006v-2h-4.006v2zm8.012 0h4.006v-2h-4.006v2zm8.011 0h4.006v-2h-4.006v2zm8.012 0h4.006v-2h-4.006v2zm8.011 0h4.006v-2h-4.006v2zm8.012 0h4.006v-2h-4.006v2zm8.011 0h4.006v-2h-4.006v2zm8.012 0h4.006v-2h-4.006v2zm8.012 0h4.005v-2h-4.005v2zm8.011 0h4.006v-2h-4.006v2zm8.012 0h4.005v-2h-4.005v2zm8.011 0h4.006v-2h-4.006v2zm8.012 0h4.005v-2h-4.005v2zm8.011 0h4.006v-2h-4.006v2zm8.012 0h4.005v-2H359v2zm8.011 0h4.006v-2h-4.006v2zm8.012 0h4.006v-2h-4.006v2zm8.011 0h4.006v-2h-4.006v2zm8.012 0h4.006v-2h-4.006v2zm8.011 0h4.006v-2h-4.006v2zm8.012 0h4.006v-2h-4.006v2zm8.011 0h4.006v-2h-4.006v2zm8.012 0h4.006v-2h-4.006v2zm8.012 0h4.005v-2h-4.005v2zm8.011 0h4.006v-2h-4.006v2zm8.012 0h4.005v-2h-4.005v2zm8.011 0h4.006v-2h-4.006v2zm8.012 0h4.005v-2h-4.005v2zm8.011 0h4.006v-2h-4.006v2zm8.012 0h4.006v-2h-4.006v2zm8.011 0h4.006v-2h-4.006v2zm8.012 0h2.002v-2h-2.002v2zm2.002 0c.294 0 .586-.03.869-.089l-.406-1.959a2.23 2.23 0 0 1-.463.048v2zm2.46-.775a4.43 4.43 0 0 0 .658-.561l-1.44-1.388a2.37 2.37 0 0 1-.36.307l1.142 1.642zm.658-.561a4.46 4.46 0 0 0 .546-.691l-1.683-1.081a2.44 2.44 0 0 1-.303.384l1.44 1.388zm1.191-2.312c.054-.284.082-.575.082-.869h-2a2.72 2.72 0 0 1-.046.495l1.964.374zm.082-.869a4.67 4.67 0 0 0-.082-.87l-1.964.375c.03.162.046.327.046.495h2zm-.727-2.49a4.46 4.46 0 0 0-.546-.691l-1.44 1.388a2.44 2.44 0 0 1 .303.384l1.683-1.081zm-.546-.691a4.37 4.37 0 0 0-.658-.561l-1.142 1.642a2.37 2.37 0 0 1 .36.307l1.44-1.388zm-2.249-1.247c-.283-.059-.574-.089-.869-.089v2a2.3 2.3 0 0 1 .463.047l.406-1.958zm-.869-.089h-2.002v2h2.002v-2zm-6.008 0h-4.006v2h4.006v-2zm-8.012 0h-4.005v2h4.005v-2zm-8.011 0h-4.006v2h4.006v-2zm-8.012 0h-4.006v2h4.006v-2zm-8.011 0h-4.006v2h4.006v-2zm-8.012 0h-4.006v2h4.006v-2zm-8.011 0h-4.006v2h4.006v-2zm-8.012 0h-4.006v2h4.006v-2zm-8.011 0h-4.006v2h4.006v-2zm-8.012 0h-4.006v2h4.006v-2zm-8.011 0h-4.006v2h4.006v-2zm-8.012 0h-4.006v2h4.006v-2zm-8.011 0h-4.006v2h4.006v-2zm-8.012 0h-4.006v2h4.006v-2zm-8.012 0h-4.005v2h4.005v-2zm-8.011 0h-4.006v2h4.006v-2zm-8.012 0H359v2h4.005v-2zm-8.011 0h-4.006v2h4.006v-2zm-8.012 0h-4.005v2h4.005v-2zm-8.011 0h-4.006v2h4.006v-2zm-8.012 0h-4.005v2h4.005v-2zm-8.011 0h-4.006v2h4.006v-2zm-8.012 0h-4.006v2h4.006v-2zm-8.011 0h-4.006v2h4.006v-2zm-8.012 0h-4.006v2h4.006v-2zm-8.011 0h-4.006v2h4.006v-2zm-8.012 0h-4.006v2h4.006v-2zm-8.011 0h-4.006v2h4.006v-2zm-8.012 0h-4.006v2h4.006v-2zm-8.012 0h-4.005v2h4.005v-2zm-8.011 0h-4.006v2h4.006v-2zm-8.012 0h-4.005v2h4.005v-2zm-8.011 0h-4.006v2h4.006v-2zm-8.012 0h-4.005v2h4.005v-2zm-8.011 0h-4.006v2h4.006v-2zm-8.012 0h-4.006v2h4.006v-2zm-8.011 0h-4.006v2h4.006v-2zm-8.012 0h-4.006v2h4.006v-2zm-8.011 0h-4.006v2h4.006v-2zm-8.012 0h-4.006v2h4.006v-2zm-8.011 0h-4.006v2h4.006v-2zm-8.012 0h-2.003v2h2.003v-2zm-2.001 0l-1.958-.021-.04 2 1.995.021.003-2zm-5.869-.171l-3.903-.295-.188 1.991 3.977.301.114-1.997zm-7.792-.736l-3.871-.585-.335 1.972 3.944.596.262-1.983zm-7.716-1.313l-3.817-.87-.48 1.942 3.888.886.409-1.958zm-7.598-1.881l-3.742-1.149-.623 1.9 3.813 1.172.552-1.923zm-7.439-2.436l-3.647-1.422-.761 1.85 3.716 1.448.692-1.876zm-7.24-2.976l-3.534-1.685-.893 1.789 3.599 1.716.828-1.82zm-7.004-3.498l-3.402-1.937-1.021 1.72 3.465 1.973.958-1.756zm-6.732-3.996l-3.254-2.179-1.142 1.642 3.314 2.218 1.082-1.681zm-6.426-4.472l-3.09-2.407-1.257 1.556 3.146 2.45 1.201-1.599zm-6.09-4.921l-2.91-2.621-1.364 1.462 2.963 2.668 1.312-1.509zm-5.726-5.342l-1.372-1.399-1.44 1.388 1.397 1.424 1.415-1.413zm-1.372-1.399l-1.378-1.455-1.465 1.362 1.403 1.481 1.44-1.388zm-4.055-4.439l-2.568-3.078-1.558 1.254 2.614 3.132 1.513-1.308zm-5.025-6.246l-2.343-3.253-1.643 1.14 2.384 3.311 1.602-1.198zm-4.569-6.587l-2.107-3.411-1.72 1.021 2.144 3.471 1.683-1.081zm-4.093-6.894l-1.863-3.55-1.787.898 1.895 3.612 1.755-.96zm-3.6-7.164l-1.611-3.672-1.845.772 1.639 3.735 1.817-.835zm-3.093-7.397l-1.353-3.775-1.894.642 1.376 3.84 1.871-.707zm-2.574-7.594l-1.089-3.86-1.934.51 1.108 3.926 1.915-.576zm-2.045-7.754l-.822-3.925-1.964.376.836 3.992 1.95-.443zm-1.508-7.876l-.551-3.973-1.986.241.56 4.041 1.976-.309zm-.965-7.961l-.278-4.001-1.997.105.283 4.069 1.992-.173zm-.419-8.008l-.019-2.006-2 .002.02 2.04 2-.036zm-.019-2.005v-.205h-2v.205h2zm0-.616v-.206h-2v.206h2zm0-.205l.019-2.006-2-.036-.02 2.04 2 .002zm.16-6.013l.278-4.001-1.993-.173-.283 4.069 1.997.105zm.692-7.989l.551-3.973-1.976-.309-.56 4.041 1.986.241zm1.237-7.924l.822-3.925-1.95-.443-.836 3.992 1.964.376zm1.777-7.819l1.089-3.859-1.915-.577-1.108 3.926 1.934.51zm2.311-7.679l1.352-3.775-1.871-.707-1.376 3.84 1.894.642zm2.835-7.5l1.611-3.672-1.817-.835-1.639 3.735 1.845.772zm3.348-7.285l1.863-3.551-1.755-.96-1.895 3.612 1.787.899zm3.848-7.034l2.107-3.411-1.683-1.081-2.144 3.471 1.72 1.021zm4.333-6.745l2.343-3.253-1.602-1.197-2.384 3.31 1.643 1.14zm4.799-6.421l2.568-3.078-1.513-1.308-2.614 3.133 1.558 1.253zm5.245-6.061l1.378-1.456-1.44-1.388-1.403 1.482 1.465 1.362zm1.378-1.456l1.372-1.398-1.415-1.414-1.397 1.424 1.44 1.388zm4.187-4.12l2.91-2.62-1.312-1.51-2.963 2.668 1.364 1.462zm5.911-5.135l3.09-2.406-1.201-1.6-3.146 2.451 1.257 1.555zm6.262-4.7l3.254-2.178-1.082-1.682-3.314 2.218 1.142 1.642zm6.584-4.237l3.402-1.938-.958-1.756-3.465 1.974 1.021 1.72zm6.872-3.75l3.534-1.685-.828-1.821-3.599 1.716.893 1.79zm7.127-3.24l3.647-1.421-.692-1.877-3.716 1.449.761 1.849zm7.344-2.708l3.742-1.15-.552-1.922-3.813 1.171.623 1.901zm7.523-2.161l3.817-.87-.409-1.958-3.888.887.48 1.941zm7.662-1.598l3.871-.585-.262-1.983-3.944.596.335 1.972zm7.76-1.025l3.903-.296-.114-1.996-3.977.301.188 1.991zm7.814-.446l1.958-.02-.003-2-1.995.021.04 1.999zm1.956-.02h1.971v-2h-1.971v2zm5.913 0h3.942v-2h-3.942v2zm7.883 0h3.942v-2h-3.942v2zm7.884 0h3.941v-2h-3.941v2zm7.883 0h3.942v-2h-3.942v2zm7.884 0h3.941v-2h-3.941v2zm7.883 0h3.942v-2h-3.942v2zm7.883 0h3.942v-2h-3.942v2zm7.884 0h3.941v-2h-3.941v2zm7.883 0h3.942v-2h-3.942v2zm7.883 0h3.942v-2h-3.942v2zm7.884 0h3.942v-2h-3.942v2zm7.883 0h3.942v-2h-3.942v2zm7.884 0h3.941v-2h-3.941v2zm7.883 0h3.942v-2h-3.942v2zm7.883 0h3.942v-2h-3.942v2zm7.884 0h3.942v-2h-3.942v2zm7.883 0h3.942v-2h-3.942v2zm7.884 0h3.941v-2h-3.941v2zm7.883 0h3.942v-2h-3.942v2zm7.883 0h3.942v-2h-3.942v2zm7.884 0h3.942v-2h-3.942v2zm7.883 0h3.942v-2h-3.942v2zm7.884 0h3.941v-2h-3.941v2zm7.883 0h3.942v-2h-3.942v2zm7.883 0h3.942v-2h-3.942v2zm7.884 0h3.941v-2h-3.941v2zm7.883 0h3.942v-2h-3.942v2zm7.884 0h3.941v-2h-3.941v2zm7.883 0h3.942v-2h-3.942v2zm7.883 0h1.971v-2h-1.971v2zm1.97 0l1.932-.015-.033-2-1.897.015-.002 2zm5.792-.144l3.854-.26-.169-1.993-3.786.255.101 1.998zm7.696-.651l3.827-.521-.304-1.977-3.759.512.236 1.986zm7.634-1.172l3.783-.78-.437-1.952-3.716.766.37 1.966zm7.537-1.687l3.721-1.034-.568-1.917-3.656 1.015.503 1.936zm7.405-2.192l3.643-1.282-.695-1.875-3.58 1.259.632 1.898zm7.241-2.685l1.781-.747-.789-1.838-1.75.734.758 1.851zm1.781-.747l1.785-.785-.819-1.824-1.755.771.789 1.838zm5.315-2.443l3.472-1.776-.941-1.765-3.412 1.745.881 1.796zm6.882-3.668l3.345-2.005-1.056-1.698-3.288 1.97.999 1.733zm6.621-4.12l3.204-2.223-1.167-1.624-3.149 2.185 1.112 1.662zm6.333-4.551l3.049-2.43-1.272-1.543-2.998 2.388 1.221 1.585zm6.017-4.958l2.884-2.625-1.37-1.457-2.836 2.581 1.322 1.501zm5.68-5.342l1.364-1.393-1.44-1.388-1.341 1.369 1.417 1.412zm1.364-1.393l1.36-1.434-1.462-1.364-1.338 1.41 1.44 1.388zm4.008-4.368l2.551-3.019-1.549-1.266-2.508 2.97 1.506 1.315zm5.001-6.12l2.348-3.179-1.628-1.162-2.309 3.127 1.589 1.214zm4.592-6.432l2.137-3.323-1.699-1.055-2.103 3.27 1.665 1.108zm4.166-6.714l1.919-3.455-1.763-.943-1.888 3.398 1.732 1zm3.727-6.968l1.694-3.57-1.82-.829-1.667 3.512 1.793.887zm3.274-7.192l.747-1.829-1.858-.741-.734 1.8 1.845.77zm.747-1.829l.724-1.858-1.869-.711-.713 1.828 1.858.741zm2.083-5.608l1.238-3.792-1.91-.59-1.219 3.731 1.891.651zm2.355-7.62l.995-3.863-1.944-.468-.979 3.801 1.928.53zm1.867-7.754l.748-3.918-1.97-.344-.736 3.855 1.958.407zm1.372-7.857l.5-3.957-1.988-.219-.492 3.894 1.98.282zm.874-7.927l.248-3.981-1.998-.093-.244 3.917 1.994.157zm.371-7.967l.015-1.994-2 .001-.014 1.963 1.999.03zm.015-1.994v-.204h-2v.204h2zm0-.614v-.205h-2v.205h2zm0-.206l-.018-1.985-2 .034.018 1.953 2-.002zm-.146-5.949l-.253-3.96-1.993.158.248 3.898 1.998-.096zm-.629-7.91l-.5-3.935-1.98.283.492 3.873 1.988-.221zm-1.123-7.854l-.746-3.896-1.958.407.734 3.835 1.97-.346zm-1.614-7.767l-.99-3.843-1.929.53.974 3.781 1.945-.468zm-2.101-7.652l-1.23-3.772-1.891.65 1.21 3.712 1.911-.59zm-2.579-7.503l-1.467-3.687-1.846.769 1.443 3.628 1.87-.71zm-3.05-7.325l-1.699-3.586-1.793.885 1.671 3.528 1.821-.827zm-3.512-7.116l-1.925-3.47-1.733.998 1.894 3.414 1.764-.942zm-3.96-6.876l-2.145-3.339-1.665 1.108 2.11 3.284 1.7-1.053zm-4.397-6.607l-2.357-3.192-1.589 1.213 2.318 3.141 1.628-1.162zm-4.817-6.307l-2.561-3.032-1.507 1.315 2.519 2.982 1.549-1.265zm-5.22-5.978l-1.366-1.441-1.439 1.388 1.343 1.417 1.462-1.364zm-1.366-1.441l-1.357-1.386-1.418 1.412 1.336 1.362 1.439-1.388zm-4.137-4.088l-2.867-2.613-1.323 1.5 2.819 2.569 1.371-1.456zm-5.817-5.13l-3.03-2.419-1.222 1.583 2.979 2.378 1.273-1.542zm-6.139-4.738l-3.184-2.216-1.115 1.661 3.129 2.177 1.17-1.622zm-6.439-4.325l-3.323-2-1.003 1.73 3.267 1.967 1.059-1.697zm-6.711-3.889l-3.448-1.775-.886 1.794 3.39 1.744.944-1.763zm-6.955-3.433l-3.56-1.541-.763 1.849 3.498 1.513.825-1.821zm-7.17-2.961l-3.655-1.298-.637 1.896 3.592 1.275.7-1.873zm-7.353-2.471l-3.735-1.048-.507 1.934 3.67 1.03.572-1.916zm-7.503-1.969l-3.798-.792-.375 1.964 3.731.779.442-1.951zm-7.621-1.455l-3.842-.532-.241 1.986 3.775.522.308-1.976zm-7.701-.933l-3.871-.269-.104 1.997 3.802.265.173-1.993zm-7.747-.406l-1.941-.019-.002 2 1.906.019.037-2zm-1.942.981l.003-2h-.003v2zm-236.502 0v-2h-.001l.001 2zm-42.097-8.657l.789-1.838-.789 1.838zm-67.87-105.408l2 .002v-.002h-2zm0-.822l-2-.002v.002h2zM160.714 7.034v-2h-.002l.002 2zm346.528 0v2h2v-2h-2zm0-7.034h2v-2h-2v2zM160.714 0v-2h-.002l.002 2zM43.965 121.101l-2-.002v.002h2zm0 .822l2 .001v-.001h-2zm34.169 85.658l-1.44 1.388 1.44-1.388zm37.888 26.249l.789-1.838-.789 1.838zm44.692 9.193v-2h-.001l.001 2zm236.502 0l.002-2h-.002v2zm77.723 33.448l1.44-1.388-1.44 1.388zm32.244 80.62h2v-.002l-2 .002zm0 .819h-2v.002l2-.002zm-8.35 43.664l-1.857-.741 1.857.741zm-23.836 37.017l-1.439-1.388 1.439 1.388zm-35.686 24.725l-.789-1.838.789 1.838zm-42.095 8.662l.002-2h-.002v2zm-236.502 0v-2h-.002l.002 2zm-82.515 35.51l1.44 1.388-1.44-1.388zm-34.234 85.59l-2-.002v.002h2zm0 .822h-2v.002l2-.002zM160.714 715l-.002 2h.002v-2zm338.882-1.03l1.44 1.388-1.44-1.388zm0-4.974l-1.44 1.388 1.44-1.388zm-338.882-1.03l-.002 2h.002v-2zM50.747 593.9h-2v.002l2-.002zm0-.822l-2-.002v.002h2zm32.245-80.619l1.44 1.388-1.44-1.388zm77.722-33.446v-2h-.002l.002 2zm236.502 0l.001-2h-.001v2zm107.883-74.746l1.858.741-1.858-.741zm8.866-46.357h-2v.002l2-.002zm0-.819h2v-.002l-2 .002zm-34.233-85.592l-1.44 1.388 1.44-1.388zm-82.516-37.511h-1.971v4h1.971v-4zm-5.912 0h-3.942v4h3.942v-4zm-7.884 0h-3.942v4h3.942v-4zm-7.883 0h-3.942v4h3.942v-4zm-7.884 0h-3.941v4h3.941v-4zm-7.883 0h-3.942v4h3.942v-4zm-7.883 0h-3.942v4h3.942v-4zm-7.884 0h-3.941v4h3.941v-4zm-7.883 0h-3.942v4h3.942v-4zm-7.884 0h-3.941v4h3.941v-4zm-7.883 0h-3.942v4h3.942v-4zm-7.883 0h-3.942v4h3.942v-4zm-7.884 0h-3.941v4h3.941v-4zm-7.883 0h-3.942v4h3.942v-4zm-7.884 0h-3.941v4h3.941v-4zm-7.883 0h-3.942v4h3.942v-4zm-7.883 0h-3.942v4h3.942v-4zm-7.884 0h-3.941v4h3.941v-4zm-7.883 0h-3.942v4h3.942v-4zm-7.883 0h-3.942v4h3.942v-4zm-7.884 0h-3.942v4h3.942v-4zm-7.883 0h-3.942v4h3.942v-4zm-7.884 0h-3.941v4h3.941v-4zm-7.883 0h-3.942v4h3.942v-4zm-7.883 0h-3.942v4h3.942v-4zm-7.884 0h-3.942v4h3.942v-4zm-7.883 0h-3.942v4h3.942v-4zm-7.884 0h-3.941v4h3.941v-4zm-7.883 0h-3.942v4h3.942v-4zm-7.883 0h-3.942v4h3.942v-4zm-7.884 0h-1.971v4h1.971v-4zm-1.972 0a107.26 107.26 0 0 1-2.123-.019l-.078 3.999 2.204.02-.003-4zm-6.365-.189l-4.232-.343-.404 3.98 4.394.356.242-3.993zm-8.446-.858l-4.19-.686-.727 3.933 4.351.713.566-3.96zm-8.349-1.543l-4.12-1.024-1.044 3.861 4.278 1.064.886-3.901zm-8.196-2.215l-4.024-1.355-1.353 3.764 4.178 1.406 1.199-3.815zm-7.991-2.872l-1.96-.818-1.577 3.676 2.034.849 1.503-3.707zm-1.96-.818l-1.962-.865-1.652 3.643 2.037.898 1.577-3.676zm-5.832-2.715l-3.792-2.005-1.94 3.498 3.934 2.08 1.798-3.573zm-7.501-4.16l-3.62-2.303-2.214 3.331 3.755 2.389 2.079-3.417zm-7.145-4.749l-3.425-2.584-2.472 3.145 3.552 2.68 2.345-3.241zm-6.746-5.301l-3.211-2.847-2.712 2.94 3.329 2.951 2.594-3.044zm-6.308-5.818l-1.505-1.531-2.88 2.777 1.56 1.586 2.825-2.832zm-1.505-1.531l-1.248-1.315-2.925 2.728 1.293 1.364 2.88-2.777zm-3.677-4.007l-2.34-2.771-3.097 2.531 2.425 2.871 3.013-2.631zm-4.589-5.616l-2.155-2.917-3.256 2.324 2.232 3.022 3.178-2.429zm-4.214-5.903l-1.962-3.051-3.399 2.109 2.032 3.159 3.329-2.217zm-3.825-6.164l-1.762-3.171-3.527 1.886 1.824 3.283 3.465-1.998zm-3.421-6.398l-1.556-3.277-3.64 1.657 1.61 3.393 3.586-1.773zm-3.006-6.603l-.686-1.68-3.715 1.482.71 1.739 3.691-1.541zm-.686-1.68l-.665-1.707-3.739 1.423.688 1.766 3.715-1.482zm-1.913-5.151l-1.137-3.482-3.822 1.181 1.177 3.603 3.782-1.302zm-2.163-6.999l-.914-3.547-3.889.935.945 3.671 3.857-1.059zm-1.714-7.122l-.687-3.599-3.94.688.711 3.723 3.917-.812zm-1.26-7.218l-.458-3.635-3.976.438.474 3.76 3.96-.563zm-.801-7.282l-.228-3.657-3.996.186.236 3.782 3.988-.311zm-.341-7.319l-.013-1.832-4-.004.013 1.895 3.999-.059zm-.013-1.834v-.206h-4v.206h4zm0-.616v-.206h-4v.206h4zm0-.204l.019-1.989-3.999-.072-.02 2.057 4 .004zm.159-5.962l.276-3.967-3.985-.345-.285 4.103 3.995.209zm.686-7.921l.546-3.939-3.952-.617-.565 4.075 3.971.481zm1.227-7.856l.815-3.892-3.901-.886-.843 4.026 3.929.752zm1.762-7.753l1.08-3.826-3.83-1.153-1.117 3.959 3.868 1.02zm2.291-7.613l1.341-3.742-3.742-1.414-1.388 3.873 3.788 1.284zm2.81-7.436l1.597-3.64-3.635-1.67-1.653 3.767 3.69 1.543zm3.319-7.222l1.846-3.519-3.509-1.92-1.911 3.643 3.574 1.796zm3.815-6.972l2.089-3.381-3.366-2.162-2.163 3.501 3.44 2.042zm4.295-6.686l2.322-3.224-3.204-2.395-2.405 3.34 3.287 2.28zm4.757-6.364l2.545-3.05-3.025-2.617-2.637 3.16 3.117 2.507zm5.198-6.008l1.366-1.443-2.88-2.776-1.415 1.495 2.929 2.724zm1.366-1.443l1.36-1.386-2.83-2.827-1.409 1.436 2.88 2.776zm4.15-4.083l2.884-2.597-2.623-3.02-2.99 2.692 2.729 2.925zm5.857-5.088l3.061-2.385-2.401-3.199-3.174 2.473 2.514 3.111zm6.206-4.657l3.223-2.158-2.165-3.363-3.343 2.238 2.285 3.283zm6.522-4.199l3.371-1.92-1.916-3.511-3.497 1.991 2.042 3.439zm6.809-3.715l3.5-1.669-1.655-3.642-3.632 1.732 1.787 3.579zm7.06-3.209l3.613-1.408-1.384-3.753-3.75 1.462 1.521 3.699zm7.275-2.683l3.707-1.139-1.105-3.845-3.847 1.182 1.245 3.801zm7.452-2.14l3.781-.862-.817-3.916-3.925.895.961 3.883zm7.59-1.583l3.834-.579-.524-3.966-3.981.601.671 3.943zm7.686-1.016l3.866-.293-.228-3.994-4.014.304.376 3.982zm7.74-.441l1.939-.02-.005-4-2.013.021.079 3.999zm1.936-.02h2.015v-4h-2.015v4zm6.045 0h4.029v-4h-4.029v4zm8.058 0h4.03v-4h-4.03v4zm8.059 0h4.029v-4h-4.029v4zm8.059 0h4.029v-4h-4.029v4zm8.059 0h4.029v-4h-4.029v4zm8.058 0h4.03v-4h-4.03v4zm8.059 0h4.03v-4h-4.03v4zm8.059 0h4.029v-4h-4.029v4zm8.059 0h4.029v-4h-4.029v4zm8.059 0h4.029v-4h-4.029v4zm8.058 0h4.03v-4h-4.03v4zm8.059 0h4.029v-4h-4.029v4zm8.059 0h4.029v-4h-4.029v4zm8.059 0h4.029v-4h-4.029v4zm8.058 0h4.03v-4h-4.03v4zm8.059 0h4.03v-4h-4.03v4zm8.059 0h4.029v-4h-4.029v4zm8.059 0h4.029v-4h-4.029v4zm8.059 0h4.029v-4h-4.029v4zm8.058 0h4.03v-4h-4.03v4zm8.059 0h4.03v-4h-4.03v4zm8.059 0h4.029v-4h-4.029v4zm8.059 0h4.029v-4h-4.029v4zm8.058 0h4.03v-4h-4.03v4zm8.059 0h4.03v-4h-4.03v4zm8.059 0h4.029v-4h-4.029v4zm8.059 0h4.029v-4h-4.029v4zm8.059 0h4.029v-4h-4.029v4zm8.058 0h4.03v-4h-4.03v4zm8.059 0h4.029v-4h-4.029v4zm8.059 0h4.029v-4h-4.029v4zm8.059 0h4.029v-4h-4.029v4zm8.058 0h4.03v-4h-4.03v4zm8.059 0h4.03v-4h-4.03v4zm8.059 0h4.029v-4h-4.029v4zm8.059 0h4.029v-4h-4.029v4zm8.059 0h4.029v-4h-4.029v4zm8.058 0h4.03v-4h-4.03v4zm8.059 0h4.029v-4h-4.029v4zm8.059 0h4.029v-4h-4.029v4zm8.059 0h4.029v-4h-4.029v4zm8.058 0h4.03v-4h-4.03v4zm8.059 0h2.015v-4h-2.015v4zm4.015-2v-.02-.02-.02-.02-.02-.02-.02-.02-.02-.02-.02-.02-.02-.02-.02-.02-.02-.021-.021-.021-.021-.021-.021-.021-.021-.021-.021-.021-.021-.021V6.4v-.021-.021-.021-.021-.021-.021-.021-.021-.021-.021-.021-.021-.021-.021-.021-.021-.021-.021-.021-.021-.021-.021-.021-.021-.021-.021-.021-.021V5.8v-.021-.021-.021-.021-.021-.021-.021-.021-.021-.021-.021-.021-.021-.021-.021-.021-.021-.021-.021-.021-.021-.021-.021-.021-.021l-4-.007v.021.021.021.021.021.021.021.021.021.021.021.021.021.021.021.021.021.021.021.021.021.021.021.021.021.021.021.021.021.021.021.021.021.021V6v.021.021.021.021.021.021.021.021.021.021.021.021.021.021.021.021.021.021.021.021.021.021.021.021.021.021.021.021.021.021.021.021.021.02.02.02.02.02.02.02.02.02.02.02.02.02.02.02.02.02l4 .007zm0-5.277v-.025-.025-.024-.024-.024-.024-.024-.024-.024-.023-.023-.023-.023-.023-.023-.023-.022-.022-.022-.022-.022-.022-.022-.021-.021-.021-.021-.021-.021-.02-.02-.02-.02-.025-.025-.024V.92.896.872.849.826.804.781.759.737.716.694.673.653.632.612.588.565.542.519.497.475.454.433.413.39.367.345.324.303.283.261.24.219.197.176.154.134.113.092.072.051.031.011c0-.011 0-.011-2-.011h-2v.021.02.021.021.022.02.022.021.02.022.02.021.022.023.02.021.022.022.023.02.021.021.021.022.022.023.023V.6.624v.02.021.021.021.021.022.022.022.023.023.023.023.024.024.024.024.025.025.02.02.02.021.021.021.021.021.021.022.022.022.022.022.022.022.023.023.023.023.023.023.023.024.024.024.024.024.024.024.025.025l4 .006zm-2-3.758h-2.015v4h2.015v-4zm-6.044 0h-4.029v4h4.029v-4zm-8.059 0h-4.029v4h4.029v-4zm-8.059 0h-4.029v4h4.029v-4zm-8.058 0h-4.03v4h4.03v-4zm-8.059 0h-4.03v4h4.03v-4zm-8.059 0h-4.029v4h4.029v-4zm-8.059 0h-4.029v4h4.029v-4zm-8.058 0h-4.03v4h4.03v-4zm-8.059 0h-4.03v4h4.03v-4zm-8.059 0h-4.029v4h4.029v-4zm-8.059 0h-4.029v4h4.029v-4zm-8.059 0h-4.029v4h4.029v-4zm-8.058 0h-4.03v4h4.03v-4zm-8.059 0h-4.03v4h4.03v-4zm-8.059 0h-4.029v4h4.029v-4zm-8.059 0h-4.029v4h4.029v-4zm-8.058 0h-4.03v4h4.03v-4zm-8.059 0h-4.03v4h4.03v-4zm-8.059 0h-4.029v4h4.029v-4zm-8.059 0h-4.029v4h4.029v-4zm-8.059 0h-4.029v4h4.029v-4zm-8.058 0h-4.03v4h4.03v-4zm-8.059 0h-4.03v4h4.03v-4zm-8.059 0h-4.029v4h4.029v-4zm-8.059 0h-4.029v4h4.029v-4zm-8.058 0h-4.03v4h4.03v-4zm-8.059 0h-4.03v4h4.03v-4zm-8.059 0h-4.029v4h4.029v-4zm-8.059 0h-4.029v4h4.029v-4zm-8.059 0h-4.029v4h4.029v-4zm-8.058 0h-4.03v4h4.03v-4zm-8.059 0h-4.03v4h4.03v-4zm-8.059 0h-4.029v4h4.029v-4zm-8.059 0h-4.029v4h4.029v-4zM227.2-2h-4.03v4h4.03v-4zm-8.059 0h-4.03v4h4.03v-4zm-8.059 0h-4.029v4h4.029v-4zm-8.059 0h-4.029v4h4.029v-4zm-8.059 0h-4.029v4h4.029v-4zm-8.058 0h-4.03v4h4.03v-4zm-8.059 0h-4.03v4h4.03v-4zm-8.059 0h-4.029v4h4.029v-4zm-8.059 0h-2.015v4h2.015v-4zm-2.017 0l-1.958.019.073 3.999 1.89-.018-.005-4zm-5.868.157l-3.905.271.345 3.985 3.769-.262-.209-3.995zm-7.798.676l-3.876.537.616 3.952 3.741-.518-.481-3.971zM139.314.038l-3.831.799.883 3.901 3.698-.771-.75-3.929zm-7.632 1.728l-3.768 1.057 1.145 3.832 3.638-1.02-1.015-3.869zm-7.498 2.241l-3.687 1.309 1.401 3.746 3.561-1.264-1.275-3.792zm-7.328 2.741l-3.591 1.554 1.65 3.644 3.467-1.5-1.526-3.697zm-7.128 3.227l-3.478 1.79 1.889 3.526 3.36-1.729-1.771-3.587zm-6.895 3.695l-3.352 2.017 2.12 3.392 3.238-1.949-2.006-3.461zm-6.634 4.144l-3.211 2.234 2.339 3.245 3.102-2.159-2.23-3.32zm-6.346 4.573l-3.056 2.44 2.546 3.085 2.954-2.358-2.444-3.167zm-6.031 4.978l-2.891 2.634 2.742 2.913 2.795-2.547-2.646-3zm-5.694 5.36l-1.369 1.397 2.88 2.776 1.324-1.351-2.835-2.822zm-1.369 1.397l-1.377 1.452 2.925 2.728 1.332-1.404-2.88-2.776zm-4.058 4.423l-2.582 3.057 3.098 2.531 2.498-2.957-3.013-2.631zm-5.062 6.197l-2.376 3.219 3.256 2.323 2.299-3.114-3.179-2.428zm-4.647 6.513l-2.162 3.366 3.4 2.107 2.092-3.257-3.33-2.216zm-4.215 6.8l-1.941 3.498 3.529 1.884 1.878-3.386-3.466-1.996zm-3.768 7.056l-1.712 3.615 3.642 1.654 1.658-3.499-3.587-1.77zm-3.309 7.282l-1.479 3.716 3.74 1.42 1.432-3.598-3.693-1.538zm-2.839 7.478l-1.24 3.802 3.822 1.18 1.201-3.682-3.783-1.3zm-2.359 7.641l-.998 3.873 3.889.937.966-3.751-3.857-1.059zm-1.873 7.774l-.752 3.928 3.94.69.728-3.804-3.916-.814zm-1.38 7.878l-.504 3.966 3.976.442.488-3.842-3.96-.566zm-.883 7.947l-.254 3.991 3.995.192.246-3.866-3.987-.317zm-.384 7.987l-.018 2 4 .004.017-1.937-3.999-.067zm-.018 2.002v.206h4v-.206h-4zm0 .616v.206h4v-.206h-4zm0 .204l.014 2.01 4-.06-.014-1.947-4-.003zm.138 6.028l.25 4.012 3.988-.312-.242-3.886-3.996.186zm.627 8.014l.503 3.989 3.96-.563-.487-3.863-3.976.437zm1.132 7.959l.754 3.949 3.917-.812-.73-3.825-3.94.688zm1.633 7.872l1.003 3.893 3.857-1.059-.971-3.77-3.889.936zm2.128 7.752l1.248 3.822 3.782-1.302-1.209-3.701-3.822 1.181zm2.618 7.602l.73 1.874 3.715-1.482-.707-1.814-3.739 1.422zm.73 1.874l.753 1.844 3.691-1.541-.729-1.785-3.715 1.482zm2.345 5.494l1.708 3.599 3.586-1.772-1.653-3.484-3.641 1.657zm3.53 7.141l1.935 3.483 3.465-1.999-1.872-3.37-3.527 1.886zm3.98 6.901l2.155 3.351 3.329-2.217-2.085-3.242-3.399 2.108zm4.417 6.631l2.367 3.205 3.178-2.428-2.29-3.101-3.255 2.324zm4.838 6.332l2.572 3.044 3.013-2.631-2.487-2.944-3.097 2.531zm5.242 6.002l1.371 1.446 2.88-2.776-1.326-1.398-2.925 2.728zm1.371 1.446l1.376 1.404 2.834-2.822-1.33-1.358-2.88 2.776zm4.195 4.144l2.908 2.647 2.644-3.002-2.811-2.558-2.741 2.913zm5.901 5.197l3.076 2.45 2.441-3.169-2.972-2.368-2.544 3.087zm6.231 4.798l3.231 2.242 2.225-3.324-3.122-2.166-2.334 3.248zm6.536 4.375l3.374 2.022 1.999-3.465-3.259-1.953-2.114 3.396zm6.814 3.93l3.502 1.791 1.762-3.591-3.383-1.73-1.881 3.53zm7.063 3.464l1.801.791 1.577-3.676-1.739-.764-1.639 3.649zm1.801.791l1.796.753 1.516-3.702-1.735-.727-1.577 3.676zm5.425 2.168l3.675 1.293 1.264-3.795-3.548-1.248-1.391 3.75zm7.392 2.462l3.754 1.042 1.004-3.872-3.623-1.006-1.135 3.836zm7.541 1.957l3.816.786.74-3.931-3.683-.759-.873 3.904zm7.657 1.442l3.86.526.472-3.973-3.726-.507-.606 3.954zm7.737.919l3.887.262.201-3.995-3.752-.252-.336 3.985zm7.782.392l1.948.015-.003-4a107.04 107.04 0 0 1-1.88-.015l-.065 4zm1.946.015h1.971v-4h-1.971v4zm5.913 0h3.942v-4h-3.942v4zm7.883 0h3.942v-4h-3.942v4zm7.884 0h3.941v-4h-3.941v4zm7.883 0h3.942v-4h-3.942v4zm7.884 0h3.941v-4h-3.941v4zm7.883 0h3.942v-4h-3.942v4zm7.883 0h3.942v-4h-3.942v4zm7.884 0h3.941v-4h-3.941v4zm7.883 0h3.942v-4h-3.942v4zm7.883 0h3.942v-4h-3.942v4zm7.884 0h3.942v-4h-3.942v4zm7.883 0h3.942v-4h-3.942v4zm7.884 0h3.941v-4h-3.941v4zm7.883 0h3.942v-4h-3.942v4zm7.883 0h3.942v-4h-3.942v4zm7.884 0h3.942v-4h-3.942v4zm7.883 0h3.942v-4h-3.942v4zm7.884 0h3.941v-4h-3.941v4zm7.883 0h3.942v-4h-3.942v4zm7.883 0h3.942v-4h-3.942v4zm7.884 0h3.942v-4h-3.942v4zm7.883 0h3.942v-4h-3.942v4zm7.884 0h3.941v-4h-3.941v4zm7.883 0h3.942v-4h-3.942v4zm7.883 0h3.942v-4h-3.942v4zm7.884 0h3.941v-4h-3.941v4zm7.883 0h3.942v-4h-3.942v4zm7.884 0h3.941v-4h-3.941v4zm7.883 0h3.942v-4h-3.942v4zm7.883 0h1.971v-4h-1.971v4zm1.969 0l1.939.02.079-3.999-2.014-.021-.004 4zm5.813.169l3.866.293.376-3.983-4.014-.304-.228 3.994zm7.718.729l3.834.579.671-3.943-3.981-.602-.524 3.966zm7.643 1.301l3.78.862.961-3.883-3.924-.895-.817 3.916zm7.526 1.863l3.706 1.139 1.246-3.801-3.848-1.183-1.104 3.845zm7.369 2.414l3.613 1.408 1.521-3.699-3.75-1.462-1.384 3.753zm7.172 2.948l3.501 1.669 1.787-3.578-3.633-1.732-1.655 3.641zm6.939 3.465l3.37 1.92 2.042-3.44-3.496-1.991-1.916 3.511zm6.669 3.96l3.224 2.158 2.285-3.283-3.344-2.239-2.165 3.364zm6.368 4.431l3.061 2.385 2.514-3.112-3.174-2.472-2.401 3.199zm6.034 4.876l2.884 2.597 2.729-2.925-2.989-2.691-2.624 3.019zm5.674 5.294l1.36 1.386 2.88-2.776-1.409-1.437-2.831 2.827zm1.36 1.386l1.366 1.442 2.929-2.724-1.415-1.494-2.88 2.776zm4.019 4.4l2.545 3.05 3.116-2.507-2.636-3.161-3.025 2.618zm4.98 6.19l2.322 3.224 3.287-2.279-2.405-3.34-3.204 2.395zm4.528 6.529l2.088 3.381 3.44-2.042-2.163-3.501-3.365 2.162zm4.057 6.833l1.846 3.52 3.574-1.796-1.911-3.644-3.509 1.92zm3.569 7.102l1.596 3.64 3.691-1.543-1.653-3.767-3.634 1.67zm3.066 7.333l1.341 3.743 3.788-1.284-1.387-3.873-3.742 1.414zm2.552 7.529l1.079 3.826 3.868-1.02-1.117-3.958-3.83 1.152zm2.027 7.687l.814 3.892 3.929-.752-.843-4.026-3.9.886zm1.495 7.809l.546 3.939 3.971-.482-.565-4.074-3.952.617zm.957 7.893l.275 3.967 3.995-.209-.285-4.104-3.985.346zm.415 7.94l.019 1.989 4-.004-.02-2.057-3.999.072zm.019 1.987v.205h4v-.205h-4zm0 .615v.204h4v-.204h-4zm0 .206l-.013 1.832 4 .06.013-1.895-4 .003zm-.126 5.494l-.228 3.656 3.987.313.237-3.783-3.996-.186zm-.572 7.304l-.458 3.635 3.96.563.474-3.76-3.976-.438zm-1.032 7.253l-.687 3.599 3.917.812.711-3.723-3.941-.688zm-1.488 7.174l-.913 3.547 3.857 1.059.945-3.67-3.889-.936zm-1.939 7.064l-1.138 3.482 3.782 1.302 1.177-3.603-3.821-1.181zm-2.385 6.926l-.665 1.706 3.715 1.482.688-1.766-3.738-1.422zm-.665 1.706l-.686 1.68 3.691 1.541.71-1.739-3.715-1.482zm-2.137 5.006l-1.556 3.277 3.586 1.773 1.611-3.393-3.641-1.657zm-3.215 6.503l-1.762 3.171 3.465 1.999 1.824-3.283-3.527-1.887zm-3.625 6.284l-1.961 3.051 3.329 2.218 2.031-3.16-3.399-2.109zm-4.021 6.037l-2.155 2.917 3.179 2.429 2.232-3.022-3.256-2.324zm-4.403 5.762l-2.34 2.771 3.013 2.631 2.424-2.871-3.097-2.531zm-4.77 5.463l-1.247 1.315 2.879 2.776 1.293-1.363-2.925-2.728zm-1.247 1.315l-1.505 1.531 2.825 2.832 1.559-1.587-2.879-2.776zm-4.602 4.502l-3.211 2.846 2.594 3.045 3.329-2.951-2.712-2.94zm-6.532 5.564l-3.425 2.584 2.345 3.241 3.552-2.68-2.472-3.145zm-6.95 5.03l-3.62 2.303 2.08 3.417 3.754-2.389-2.214-3.331zm-7.328 4.459l-3.792 2.005 1.798 3.573 3.934-2.08-1.94-3.498zm-7.662 3.855l-1.962.865 1.578 3.676 2.036-.899-1.652-3.642zm-1.962.865l-1.96.818 1.504 3.707 2.034-.849-1.578-3.676zm-5.926 2.335l-4.024 1.355 1.2 3.816 4.177-1.407-1.353-3.764zm-8.1 2.547l-4.12 1.025.887 3.9 4.278-1.064-1.045-3.861zm-8.278 1.882l-4.19.687.567 3.959 4.35-.713-.727-3.933zm-8.404 1.202l-4.232.344.242 3.992 4.395-.356-.405-3.98zm-8.474.514l-2.122.02-.003 4 2.204-.021-.079-3.999zm-2.124.02h-1.971v4h1.971v-4zm-5.912 0h-3.942v4h3.942v-4zm-7.884 0h-3.942v4h3.942v-4zm-7.883 0h-3.942v4h3.942v-4zm-7.884 0h-3.941v4h3.941v-4zm-7.883 0h-3.942v4h3.942v-4zm-7.883 0h-3.942v4h3.942v-4zm-7.884 0h-3.941v4h3.941v-4zm-7.883 0h-3.942v4h3.942v-4zm-7.884 0h-3.941v4h3.941v-4zm-7.883 0h-3.942v4h3.942v-4zm-7.883 0h-3.942v4h3.942v-4zm-7.884 0h-3.941v4h3.941v-4zm-7.883 0h-3.942v4h3.942v-4zm-7.884 0h-3.941v4h3.941v-4zm-7.883 0h-3.942v4h3.942v-4zm-7.883 0h-3.942v4h3.942v-4zm-7.884 0h-3.941v4h3.941v-4zm-7.883 0h-3.942v4h3.942v-4zm-7.883 0h-3.942v4h3.942v-4zm-7.884 0h-3.942v4h3.942v-4zm-7.883 0h-3.942v4h3.942v-4zm-7.884 0h-3.941v4h3.941v-4zm-7.883 0h-3.942v4h3.942v-4zm-7.883 0h-3.942v4h3.942v-4zm-7.884 0h-3.942v4h3.942v-4zm-7.883 0h-3.942v4h3.942v-4zm-7.884 0h-3.941v4h3.941v-4zm-7.883 0h-3.942v4h3.942v-4zm-7.883 0h-3.942v4h3.942v-4zm-7.884 0h-1.971v4h1.971v-4zm-1.973 0l-1.958.019.073 4 1.89-.019-.005-4zm-5.868.157l-3.905.272.346 3.985 3.768-.262-.209-3.995zm-7.797.676l-3.877.537.616 3.952 3.742-.518-.481-3.971zm-7.733 1.205l-3.831.799.883 3.902 3.698-.772-.75-3.929zm-7.632 1.728l-3.768 1.057 1.146 3.832 3.637-1.02-1.015-3.869zm-7.498 2.241l-3.687 1.309 1.401 3.746 3.561-1.264-1.275-3.791zm-7.328 2.741l-3.591 1.554 1.65 3.644 3.468-1.501-1.527-3.697zm-7.128 3.227l-3.478 1.79 1.89 3.525 3.359-1.729-1.771-3.586zm-6.895 3.695l-3.351 2.017 2.119 3.393 3.238-1.949-2.006-3.461zm-6.634 4.144l-3.211 2.234 2.338 3.245 3.102-2.159-2.23-3.32zm-6.346 4.573l-3.056 2.439 2.546 3.085 2.954-2.357-2.444-3.167zm-6.031 4.978l-2.891 2.634 2.742 2.913 2.795-2.547-2.645-3zm-5.694 5.359l-1.369 1.398 2.88 2.776 1.324-1.351-2.835-2.823zm-1.369 1.398l-1.377 1.452 2.925 2.728 1.332-1.404-2.88-2.776zm-4.058 4.423l-2.582 3.057 3.098 2.53 2.498-2.957-3.013-2.63zm-5.062 6.197l-2.376 3.219 3.256 2.323 2.299-3.114-3.179-2.428zm-4.647 6.513l-2.162 3.366 3.4 2.107 2.092-3.257-3.33-2.216zm-4.214 6.8l-1.941 3.498 3.529 1.884 1.878-3.386-3.466-1.996zm-3.768 7.056l-1.712 3.615 3.642 1.655 1.658-3.5-3.587-1.77zm-3.309 7.282l-1.479 3.717 3.74 1.419 1.432-3.598-3.693-1.538zm-2.839 7.478l-1.24 3.802 3.822 1.18 1.201-3.682-3.783-1.3zm-2.359 7.641l-.998 3.873 3.889.937.966-3.751-3.857-1.059zm-1.873 7.775l-.752 3.927 3.94.691.728-3.805-3.916-.813zm-1.38 7.877l-.504 3.966 3.975.442.488-3.842-3.96-.566zm-.883 7.947l-.255 3.991 3.995.192.246-3.866-3.987-.317zm-.384 7.987l-.018 2 4 .004.017-1.937-3.999-.067zm-.018 2.002v.206h4v-.206h-4zm0 .617v.205h4v-.205h-4zm0 .207l.018 2 3.999-.066-.017-1.938-4 .004zm.147 5.996l.255 3.991 3.987-.317-.246-3.866-3.995.192zm.634 7.972l.504 3.966 3.96-.566-.488-3.842-3.975.442zm1.132 7.916l.752 3.928 3.916-.814-.728-3.804-3.94.69zm1.627 7.829l.998 3.873 3.857-1.059-.966-3.75-3.889.936zm2.117 7.712l1.24 3.802 3.783-1.3-1.201-3.682-3.822 1.18zm2.6 7.564l1.479 3.716 3.693-1.538-1.432-3.598-3.74 1.42zm3.075 7.383l1.713 3.615 3.587-1.77-1.658-3.499-3.642 1.654zm3.54 7.173l1.941 3.498 3.466-1.996-1.878-3.386-3.529 1.884zm3.993 6.932l2.162 3.366 3.33-2.216-2.092-3.257-3.4 2.107zm4.433 6.661l2.376 3.218 3.179-2.427-2.299-3.114-3.256 2.323zm4.857 6.358l2.582 3.058 3.013-2.631-2.498-2.957-3.098 2.53zm5.263 6.028l1.377 1.453 2.88-2.777-1.332-1.404-2.925 2.728zm1.377 1.453l1.369 1.397 2.835-2.822-1.324-1.352-2.88 2.777zm4.172 4.122l2.891 2.634 2.645-3-2.795-2.546-2.742 2.912zm5.866 5.173l3.056 2.439 2.444-3.166-2.954-2.358-2.546 3.085zm6.191 4.778l3.211 2.234 2.23-3.32-3.102-2.159-2.339 3.245zm6.493 4.361l3.352 2.018 2.006-3.461-3.238-1.949-2.12 3.392zm6.769 3.923l3.478 1.79 1.771-3.587-3.36-1.729-1.889 3.526zm7.015 3.463l3.591 1.553 1.527-3.697-3.468-1.5-1.65 3.644zm7.232 2.986l3.687 1.309 1.275-3.792-3.561-1.264-1.401 3.747zm7.417 2.492l3.768 1.057 1.015-3.869-3.637-1.02-1.146 3.832zm7.569 1.986l3.831.799.75-3.929-3.698-.771-.883 3.901zm7.687 1.468l3.877.536.481-3.971-3.742-.518-.616 3.953zm7.769.941l3.905.271.209-3.994-3.768-.262-.346 3.985zm7.815.409l1.958.019.005-4-1.89-.018-.073 3.999zm1.96.019h2.003v-4h-2.003v4zm6.009 0h4.006v-4h-4.006v4zm8.012 0h4.005v-4h-4.005v4zm8.011 0h4.006v-4h-4.006v4zm8.012 0h4.005v-4h-4.005v4zm8.011 0h4.006v-4h-4.006v4zm8.012 0h4.005v-4h-4.005v4zm8.011 0h4.006v-4h-4.006v4zm8.012 0h4.006v-4h-4.006v4zm8.011 0h4.006v-4h-4.006v4zm8.012 0h4.006v-4h-4.006v4zm8.011 0h4.006v-4h-4.006v4zm8.012 0h4.006v-4h-4.006v4zm8.011 0h4.006v-4h-4.006v4zm8.012 0h4.006v-4h-4.006v4zm8.011 0h4.006v-4h-4.006v4zm8.012 0h4.006v-4h-4.006v4zm8.011 0h4.006v-4h-4.006v4zm8.012 0h4.006v-4h-4.006v4zm8.012 0h4.005v-4h-4.005v4zm8.011 0h4.006v-4h-4.006v4zm8.012 0h4.005v-4h-4.005v4zm8.011 0h4.006v-4h-4.006v4zm8.012 0h4.005v-4h-4.005v4zm8.011 0h4.006v-4h-4.006v4zm8.012 0h4.005v-4H359v4zm8.011 0h4.006v-4h-4.006v4zm8.012 0h4.006v-4h-4.006v4zm8.011 0h4.006v-4h-4.006v4zm8.012 0h4.006v-4h-4.006v4zm8.011 0h4.006v-4h-4.006v4zm8.012 0h4.006v-4h-4.006v4zm8.011 0h4.006v-4h-4.006v4zm8.012 0h4.006v-4h-4.006v4zm8.012 0h4.005v-4h-4.005v4zm8.011 0h4.006v-4h-4.006v4zm8.012 0h4.005v-4h-4.005v4zm8.011 0h4.006v-4h-4.006v4zm8.012 0h4.005v-4h-4.005v4zm8.011 0h4.006v-4h-4.006v4zm8.012 0h4.006v-4h-4.006v4zm8.011 0h4.006v-4h-4.006v4zm8.012 0h2.002v-4h-2.002v4zm2.002 0c.363 0 .722-.037 1.073-.11l-.814-3.917c-.084.018-.171.027-.259.027v4zm3.031-.954a5.43 5.43 0 0 0 .807-.688l-2.88-2.776a1.42 1.42 0 0 1-.211.18l2.284 3.284zm.807-.688a5.5 5.5 0 0 0 .668-.845l-3.366-2.161a1.51 1.51 0 0 1-.182.23l2.88 2.776zm1.454-2.819a5.71 5.71 0 0 0 .099-1.056h-4c0 .104-.01.207-.029.307l3.93.749zm.099-1.056c0-.357-.034-.711-.099-1.057l-3.93.749a1.65 1.65 0 0 1 .029.308h4zm-.885-3.03c-.193-.301-.416-.584-.668-.845l-2.88 2.776a1.51 1.51 0 0 1 .182.23l3.366-2.161zm-.668-.845a5.43 5.43 0 0 0-.807-.688l-2.284 3.283c.074.052.145.112.211.181l2.88-2.776zm-2.765-1.532a5.26 5.26 0 0 0-1.073-.11v4a1.31 1.31 0 0 1 .259.026l.814-3.916zm-1.073-.11h-2.002v4h2.002v-4zm-6.008 0h-4.006v4h4.006v-4zm-8.012 0h-4.005v4h4.005v-4zm-8.011 0h-4.006v4h4.006v-4zm-8.012 0h-4.006v4h4.006v-4zm-8.011 0h-4.006v4h4.006v-4zm-8.012 0h-4.006v4h4.006v-4zm-8.011 0h-4.006v4h4.006v-4zm-8.012 0h-4.006v4h4.006v-4zm-8.011 0h-4.006v4h4.006v-4zm-8.012 0h-4.006v4h4.006v-4zm-8.011 0h-4.006v4h4.006v-4zm-8.012 0h-4.006v4h4.006v-4zm-8.011 0h-4.006v4h4.006v-4zm-8.012 0h-4.006v4h4.006v-4zm-8.012 0h-4.005v4h4.005v-4zm-8.011 0h-4.006v4h4.006v-4zm-8.012 0H359v4h4.005v-4zm-8.011 0h-4.006v4h4.006v-4zm-8.012 0h-4.005v4h4.005v-4zm-8.011 0h-4.006v4h4.006v-4zm-8.012 0h-4.005v4h4.005v-4zm-8.011 0h-4.006v4h4.006v-4zm-8.012 0h-4.006v4h4.006v-4zm-8.011 0h-4.006v4h4.006v-4zm-8.012 0h-4.006v4h4.006v-4zm-8.011 0h-4.006v4h4.006v-4zm-8.012 0h-4.006v4h4.006v-4zm-8.011 0h-4.006v4h4.006v-4zm-8.012 0h-4.006v4h4.006v-4zm-8.012 0h-4.005v4h4.005v-4zm-8.011 0h-4.006v4h4.006v-4zm-8.012 0h-4.005v4h4.005v-4zm-8.011 0h-4.006v4h4.006v-4zm-8.012 0h-4.005v4h4.005v-4zm-8.011 0h-4.006v4h4.006v-4zm-8.012 0h-4.006v4h4.006v-4zm-8.011 0h-4.006v4h4.006v-4zm-8.012 0h-4.006v4h4.006v-4zm-8.011 0h-4.006v4h4.006v-4zm-8.012 0h-4.006v4h4.006v-4zm-8.011 0h-4.006v4h4.006v-4zm-8.012 0h-2.003v4h2.003v-4zm-2 0l-1.939-.021-.079 4 2.013.021.005-4zm-5.813-.169l-3.866-.293-.376 3.982 4.014.304.228-3.993zm-7.718-.729l-3.834-.579-.671 3.943 3.981.601.524-3.965zm-7.643-1.301l-3.781-.861-.961 3.882 3.925.895.817-3.916zm-7.526-1.863l-3.707-1.139-1.245 3.802 3.848 1.182 1.104-3.845zm-7.369-2.413l-3.613-1.409-1.521 3.7 3.75 1.462 1.384-3.753zm-7.172-2.949l-3.501-1.669-1.787 3.579 3.632 1.732 1.656-3.642zm-6.939-3.465l-3.371-1.919-2.042 3.439 3.497 1.992 1.916-3.512zm-6.67-3.959l-3.223-2.159-2.285 3.284 3.343 2.238 2.165-3.363zm-6.367-4.431l-3.061-2.385-2.514 3.111 3.174 2.473 2.401-3.199zm-6.035-4.876l-2.884-2.597-2.729 2.925 2.989 2.691 2.623-3.019zm-5.674-5.294l-1.36-1.386-2.88 2.777 1.409 1.436 2.83-2.827zm-1.36-1.386l-1.366-1.442-2.929 2.724 1.415 1.495 2.88-2.777zm-4.019-4.399l-2.545-3.051-3.117 2.507 2.637 3.161 3.025-2.617zm-4.98-6.19l-2.322-3.225-3.287 2.28 2.405 3.339 3.204-2.394zm-4.528-6.53l-2.089-3.38-3.439 2.042 2.163 3.5 3.365-2.162zm-4.057-6.833l-1.846-3.519-3.574 1.796 1.911 3.643 3.509-1.92zm-3.569-7.101l-1.597-3.64-3.69 1.543 1.653 3.767 3.635-1.67zm-3.066-7.334l-1.341-3.742-3.788 1.284 1.388 3.872 3.742-1.414zm-2.552-7.529l-1.08-3.826-3.868 1.02 1.117 3.959 3.83-1.153zm-2.027-7.687l-.815-3.891-3.929.752.843 4.026 3.901-.887zm-1.495-7.808l-.546-3.939-3.971.481.565 4.075 3.952-.617zm-.957-7.893l-.276-3.967-3.995.209.285 4.103 3.985-.345zm-.416-7.94l-.019-1.989-4 .004.02 2.057 3.999-.072zm-.019-1.987v-.205h-4v.205h4zm0-.616v-.206h-4v.206h4zm0-.204l.019-1.989-3.999-.072-.02 2.057 4 .004zm.159-5.962l.276-3.967-3.985-.345-.285 4.103 3.995.209zm.686-7.921l.546-3.939-3.952-.617-.565 4.075 3.971.481zm1.227-7.856l.814-3.891-3.901-.887-.843 4.026 3.929.752zm1.762-7.752l1.08-3.826-3.83-1.153-1.117 3.959 3.868 1.02zm2.291-7.613l1.341-3.742-3.742-1.414-1.388 3.872 3.788 1.284zm2.81-7.435l1.597-3.64-3.634-1.671-1.653 3.768 3.69 1.543zm3.319-7.222l1.846-3.52-3.509-1.92-1.911 3.644 3.574 1.796zm3.815-6.972l2.089-3.381-3.365-2.162-2.163 3.501 3.439 2.042zm4.295-6.686l2.322-3.224-3.204-2.395-2.405 3.34 3.287 2.279zm4.757-6.364l2.545-3.05-3.025-2.617-2.637 3.16 3.117 2.507zm5.198-6.007l1.366-1.443-2.88-2.776-1.415 1.495 2.929 2.724zm1.366-1.443l1.36-1.386-2.83-2.826-1.409 1.436 2.88 2.776zm4.15-4.083l2.884-2.596-2.623-3.02-2.99 2.692 2.729 2.924zm5.857-5.088l3.061-2.385-2.401-3.199-3.174 2.473 2.514 3.111zm6.205-4.657l3.223-2.158-2.165-3.364-3.343 2.239 2.285 3.283zm6.522-4.199l3.371-1.919-1.916-3.511-3.497 1.991 2.042 3.439zm6.809-3.715l3.501-1.669-1.656-3.641-3.632 1.732 1.787 3.578zm7.06-3.209l3.613-1.408-1.384-3.753-3.75 1.462 1.521 3.699zm7.275-2.683l3.707-1.139-1.104-3.844-3.848 1.182 1.245 3.801zm7.452-2.14l3.781-.862-.817-3.916-3.925.895.961 3.883zm7.59-1.583l3.834-.579-.524-3.966-3.981.602.671 3.943zm7.686-1.016l3.866-.292-.228-3.994-4.014.304.376 3.982zm7.74-.441l1.939-.02-.005-4-2.013.021.079 3.999zm1.936-.02h1.971v-4h-1.971v4zm5.913 0h3.942v-4h-3.942v4zm7.883 0h3.942v-4h-3.942v4zm7.884 0h3.941v-4h-3.941v4zm7.883 0h3.942v-4h-3.942v4zm7.884 0h3.941v-4h-3.941v4zm7.883 0h3.942v-4h-3.942v4zm7.883 0h3.942v-4h-3.942v4zm7.884 0h3.941v-4h-3.941v4zm7.883 0h3.942v-4h-3.942v4zm7.883 0h3.942v-4h-3.942v4zm7.884 0h3.942v-4h-3.942v4zm7.883 0h3.942v-4h-3.942v4zm7.884 0h3.941v-4h-3.941v4zm7.883 0h3.942v-4h-3.942v4zm7.883 0h3.942v-4h-3.942v4zm7.884 0h3.942v-4h-3.942v4zm7.883 0h3.942v-4h-3.942v4zm7.884 0h3.941v-4h-3.941v4zm7.883 0h3.942v-4h-3.942v4zm7.883 0h3.942v-4h-3.942v4zm7.884 0h3.942v-4h-3.942v4zm7.883 0h3.942v-4h-3.942v4zm7.884 0h3.941v-4h-3.941v4zm7.883 0h3.942v-4h-3.942v4zm7.883 0h3.942v-4h-3.942v4zm7.884 0h3.941v-4h-3.941v4zm7.883 0h3.942v-4h-3.942v4zm7.884 0h3.941v-4h-3.941v4zm7.883 0h3.942v-4h-3.942v4zm7.883 0h1.971v-4h-1.971v4zm1.97 0l1.948-.016-.065-3.999-1.881.015-.002 4zm5.842-.145l3.888-.263-.337-3.986-3.752.254.201 3.995zm7.764-.657l3.861-.526-.607-3.954-3.726.508.472 3.972zm7.701-1.183l3.816-.786-.874-3.903-3.683.759.741 3.93zm7.603-1.701l3.754-1.043-1.136-3.835-3.623 1.006 1.005 3.872zm7.47-2.211l3.675-1.293-1.391-3.751-3.548 1.249 1.264 3.795zm7.304-2.709l1.796-.753-1.577-3.676-1.735.727 1.516 3.702zm1.796-.753l1.801-.792-1.639-3.648-1.739.764 1.577 3.676zm5.362-2.464l3.501-1.792-1.881-3.53-3.382 1.731 1.762 3.591zm6.941-3.7l3.374-2.022-2.114-3.396-3.259 1.953 1.999 3.465zm6.678-4.155l3.231-2.242-2.335-3.248-3.122 2.166 2.226 3.324zm6.386-4.59l3.075-2.45-2.543-3.087-2.973 2.368 2.441 3.169zm6.068-5l2.908-2.647-2.741-2.913-2.81 2.558 2.643 3.002zm5.727-5.387l1.376-1.404-2.88-2.776-1.33 1.358 2.834 2.822zm1.376-1.404l1.371-1.446-2.925-2.728-1.326 1.398 2.88 2.776zm4.041-4.404l2.572-3.044-3.098-2.531-2.487 2.944 3.013 2.631zm5.042-6.171l2.368-3.205-3.256-2.324-2.29 3.101 3.178 2.428zm4.63-6.484l2.155-3.351-3.399-2.109-2.085 3.242 3.329 2.218zm4.201-6.77l1.934-3.482-3.527-1.886-1.872 3.37 3.465 1.998zm3.756-7.024l1.709-3.599-3.641-1.657-1.653 3.483 3.585 1.773zm3.301-7.249l.753-1.844-3.715-1.483-.729 1.786 3.691 1.541zm.753-1.844l.73-1.874-3.739-1.422-.706 1.813 3.715 1.483zm2.099-5.654l1.249-3.821-3.822-1.181-1.209 3.7 3.782 1.302zm2.375-7.681l1.003-3.893-3.889-.936-.972 3.77 3.858 1.059zm1.881-7.815l.754-3.949-3.94-.688-.73 3.824 3.916.813zm1.383-7.919l.504-3.988-3.976-.438-.488 3.863 3.96.563zm.881-7.99l.25-4.012-3.995-.187-.243 3.886 3.988.313zm.374-8.03l.015-2.01-4 .003-.014 1.947 3.999.06zm.015-2.009v-.204h-4v.204h4zm0-.614v-.205h-4v.205h4zm0-.207l-.018-2.001-3.999.067.017 1.938 4-.004zm-.147-5.996l-.255-3.991-3.987.316.246 3.867 3.996-.192zm-.634-7.972l-.504-3.967-3.96.567.488 3.841 3.976-.441zm-1.132-7.916l-.752-3.928-3.916.814.728 3.804 3.94-.69zm-1.627-7.83l-.998-3.872-3.857 1.058.966 3.751 3.889-.937zm-2.117-7.712l-1.24-3.802-3.783 1.3 1.201 3.682 3.822-1.18zm-2.6-7.563l-1.479-3.716-3.692 1.537 1.431 3.599 3.74-1.42zm-3.075-7.384l-1.712-3.615-3.587 1.77 1.657 3.5 3.642-1.655zm-3.539-7.173l-1.941-3.498-3.466 1.996 1.878 3.386 3.529-1.884zm-3.993-6.932l-2.162-3.366-3.331 2.216 2.093 3.257 3.4-2.107zm-4.433-6.661l-2.376-3.218-3.179 2.427 2.299 3.114 3.256-2.323zm-4.856-6.358l-2.583-3.058-3.013 2.631 2.498 2.957 3.098-2.53zm-5.263-6.028l-1.378-1.453-2.879 2.776 1.332 1.405 2.925-2.728zm-1.378-1.453l-1.369-1.397-2.834 2.822 1.324 1.351 2.879-2.776zM477 265.989l-2.891-2.635-2.646 3 2.795 2.547 2.742-2.912zm-5.866-5.173l-3.056-2.44-2.444 3.167 2.953 2.358 2.547-3.085zm-6.192-4.779l-3.21-2.234-2.231 3.321 3.103 2.159 2.338-3.246zm-6.493-4.361l-3.351-2.017-2.006 3.461 3.238 1.949 2.119-3.393zm-6.768-3.922l-3.479-1.79-1.77 3.586 3.359 1.729 1.89-3.525zm-7.015-3.463l-3.591-1.554-1.527 3.697 3.468 1.5 1.65-3.643zm-7.232-2.987l-3.688-1.309-1.274 3.792 3.56 1.264 1.402-3.747zm-7.417-2.492l-3.768-1.057-1.015 3.869 3.637 1.02 1.146-3.832zm-7.569-1.986l-3.831-.799-.751 3.929 3.698.771.884-3.901zm-7.688-1.468l-3.876-.537-.481 3.971 3.741.518.616-3.952zm-7.769-.941l-3.904-.271-.21 3.994 3.769.262.345-3.985zm-7.815-.41l-1.957-.019-.005 4 1.889.019.073-4z" fill="#020202" mask="url(#A)"/><use xlink:href="#I" fill="url(#C)"/><use xlink:href="#I" fill="url(#D)"/><use xlink:href="#I" stroke="#fff"/><use xlink:href="#J" fill="url(#E)"/><use xlink:href="#J" fill="url(#F)"/><use xlink:href="#J" stroke="#fff"/><use xlink:href="#K" fill="url(#G)"/><use xlink:href="#K" fill="url(#H)"/><use xlink:href="#K" stroke="#fff"/><defs><linearGradient id="B" x1="43.965" y1="0" x2="700.344" y2="431.466" xlink:href="#L"><stop stop-color="#7a00f3"/><stop offset="1" stop-color="#d221eb"/></linearGradient><linearGradient id="C" x1="507.709" y1="326.889" x2="580.804" y2="509.014" xlink:href="#L"><stop stop-color="#00ffe1"/><stop offset="1" stop-color="#6e5df6"/></linearGradient><linearGradient id="D" x1="458" y1="222" x2="633.279" y2="285.866" xlink:href="#L"><stop stop-color="#7a00f3"/><stop offset="1" stop-color="#d221eb"/></linearGradient><linearGradient id="E" x1="55.775" y1="565.512" x2="126.552" y2="756.395" xlink:href="#L"><stop stop-color="#00ffe1"/><stop offset="1" stop-color="#6e5df6"/></linearGradient><linearGradient id="F" x1="0.527" y1="457.812" x2="191.493" y2="533.128" xlink:href="#L"><stop stop-color="#7a00f3"/><stop offset="1" stop-color="#d221eb"/></linearGradient><linearGradient id="G" x1="48.068" y1="98.939" x2="116.827" y2="270.913" xlink:href="#L"><stop stop-color="#00ffe1"/><stop offset="1" stop-color="#6e5df6"/></linearGradient><linearGradient id="H" x1="1" y1="0" x2="166.817" y2="60.649" xlink:href="#L"><stop stop-color="#7a00f3"/><stop offset="1" stop-color="#d221eb"/></linearGradient><path id="I" d="M481.543 469.443l.259.504.467-.32c19.483-13.329 35.09-31.576 45.236-52.889a133.73 133.73 0 0 0 12.533-68.458c-1.937-23.526-10.067-46.119-23.564-65.485s-31.879-34.814-53.279-44.776c-1.955-.913-3.467-2.566-4.205-4.593s-.64-4.266.272-6.223a8.14 8.14 0 0 1 4.589-4.21c2.028-.739 4.265-.644 6.222.265a150.58 150.58 0 0 1 63.095 55.416 150.59 150.59 0 0 1 23.607 80.591c.013 24.757-6.109 49.131-17.819 70.944s-28.643 40.385-49.285 54.054l-.373.247.205.398 1.245 2.42c.358.696.531 1.471.501 2.253s-.26 1.542-.669 2.208a4.55 4.55 0 0 1-1.667 1.596c-.684.38-1.454.576-2.236.572l-22.119-.137c-.825-.005-1.632-.234-2.337-.663a4.55 4.55 0 0 1-1.662-1.771c-.383-.731-.56-1.551-.513-2.374s.318-1.619.782-2.3l12.562-18.433a4.55 4.55 0 0 1 1.757-1.523c.707-.346 1.493-.503 2.279-.455a4.56 4.56 0 0 1 2.207.731 4.54 4.54 0 0 1 1.557 1.727l.445-.229-.445.229.353.684z"/><path id="J" d="M90.085 714.157l.393.201.249-.364 1.774-2.603a4.54 4.54 0 0 1 1.757-1.522 4.55 4.55 0 0 1 2.28-.456c.787.049 1.547.301 2.207.731s1.197 1.026 1.557 1.727l9.558 18.569c.358.696.53 1.472.501 2.253a4.56 4.56 0 0 1-.669 2.209c-.41.666-.984 1.215-1.668 1.595s-1.453.577-2.235.572l-22.12-.137c-.825-.005-1.632-.234-2.337-.663a4.55 4.55 0 0 1-2.175-4.145c.047-.824.318-1.619.782-2.3l.986-1.446.315-.461-.493-.262a150.02 150.02 0 0 1-59.263-56.906C7.407 646.636.342 619.073 1.08 591.162a150.02 150.02 0 0 1 86.769-132.091h0a8.13 8.13 0 0 1 3.087-.751c1.068-.045 2.135.12 3.139.487s1.927.928 2.714 1.652a8.13 8.13 0 0 1 1.875 2.564c.451.97.706 2.019.751 3.087a8.14 8.14 0 0 1-.487 3.139 8.13 8.13 0 0 1-1.652 2.714 8.14 8.14 0 0 1-2.564 1.876 133.73 133.73 0 0 0-77.377 118.713 133.73 133.73 0 0 0 72.749 121.605z"/><path id="K" d="M76.78 230.947l-.414-.281.414.281c.44-.648 1.041-1.17 1.742-1.515l-.221-.449.221.449c.702-.345 1.48-.501 2.26-.453s1.534.299 2.188.727 1.186 1.021 1.544 1.718L94 249.906c.355.692.526 1.464.497 2.241s-.258 1.535-.664 2.198a4.52 4.52 0 0 1-1.653 1.587 4.5 4.5 0 0 1-2.216.568l-21.951-.136a4.5 4.5 0 0 1-2.316-.659l-.26.427.26-.427c-.698-.427-1.268-1.036-1.648-1.762s-.556-1.543-.509-2.362a4.53 4.53 0 0 1 .776-2.288l-.414-.282.414.281 1.766-2.598.279-.411-.409-.282c-19.641-13.557-35.748-31.649-46.962-52.753A149.6 149.6 0 0 1 1.51 124.735a149.62 149.62 0 0 1 15.929-68.892C28.174 34.49 43.868 16.037 63.198 2.038h0c.859-.624 1.833-1.071 2.865-1.318a8.05 8.05 0 0 1 3.149-.118 8.06 8.06 0 0 1 2.954 1.1c.903.558 1.688 1.289 2.31 2.151s1.068 1.839 1.313 2.874.285 2.109.116 3.16a8.12 8.12 0 0 1-1.098 2.964l.426.262-.426-.262a8.09 8.09 0 0 1-2.145 2.316c-17.229 12.475-31.218 28.918-40.79 47.946s-14.446 40.083-14.213 61.393 5.567 42.254 15.552 61.066A132.93 132.93 0 0 0 75.04 232.61l.415.287.283-.417 1.042-1.533z"/><linearGradient id="L" gradientUnits="userSpaceOnUse"/></defs></svg>